<mxfile host="Electron" modified="2023-11-20T16:09:08.895Z" agent="Mozilla/5.0 (Windows NT 10.0; Win64; x64) AppleWebKit/537.36 (KHTML, like Gecko) draw.io/22.1.2 Chrome/114.0.5735.289 Electron/25.9.4 Safari/537.36" etag="FgxkT6rHyulNDYkss_ES" version="22.1.2" type="device">
  <diagram name="Страница — 1" id="TgiW4BvGjdE-Q5j4rVb8">
    <mxGraphModel dx="691" dy="758" grid="0" gridSize="10" guides="1" tooltips="1" connect="1" arrows="1" fold="1" page="0" pageScale="1" pageWidth="827" pageHeight="1169" math="0" shadow="0">
      <root>
        <mxCell id="0" />
        <mxCell id="1" parent="0" />
        <mxCell id="dnCi5nIDvWoe9oQNXQzc-1" value="" style="rounded=0;whiteSpace=wrap;html=1;" parent="1" vertex="1">
          <mxGeometry x="132" y="193" width="519" height="290" as="geometry" />
        </mxCell>
        <mxCell id="dnCi5nIDvWoe9oQNXQzc-3" value="" style="rounded=0;whiteSpace=wrap;html=1;fillColor=#f5f5f5;fontColor=#333333;strokeColor=#666666;" parent="1" vertex="1">
          <mxGeometry x="132" y="194" width="519" height="58" as="geometry" />
        </mxCell>
        <mxCell id="dnCi5nIDvWoe9oQNXQzc-2" value="Логин пользователя" style="rounded=0;whiteSpace=wrap;html=1;" parent="1" vertex="1">
          <mxGeometry x="511" y="212" width="120" height="22" as="geometry" />
        </mxCell>
        <mxCell id="dnCi5nIDvWoe9oQNXQzc-4" value="" style="rounded=0;whiteSpace=wrap;html=1;fillColor=#f5f5f5;fontColor=#333333;strokeColor=#666666;" parent="1" vertex="1">
          <mxGeometry x="152" y="265" width="102" height="200" as="geometry" />
        </mxCell>
        <mxCell id="dnCi5nIDvWoe9oQNXQzc-5" value="Предстоящие экзамены" style="rounded=0;whiteSpace=wrap;html=1;" parent="1" vertex="1">
          <mxGeometry x="160" y="272" width="86" height="39" as="geometry" />
        </mxCell>
        <mxCell id="dnCi5nIDvWoe9oQNXQzc-6" value="Сданные экзамены" style="rounded=0;whiteSpace=wrap;html=1;" parent="1" vertex="1">
          <mxGeometry x="160" y="319" width="86" height="39" as="geometry" />
        </mxCell>
        <mxCell id="dnCi5nIDvWoe9oQNXQzc-7" value="Рейтинг-контроль" style="rounded=0;whiteSpace=wrap;html=1;" parent="1" vertex="1">
          <mxGeometry x="160" y="367" width="86" height="39" as="geometry" />
        </mxCell>
        <mxCell id="dnCi5nIDvWoe9oQNXQzc-8" value="Посещаемость" style="rounded=0;whiteSpace=wrap;html=1;" parent="1" vertex="1">
          <mxGeometry x="160" y="414" width="86" height="39" as="geometry" />
        </mxCell>
        <mxCell id="dnCi5nIDvWoe9oQNXQzc-16" value="Количество дней до ближайшего экзамена" style="text;html=1;strokeColor=none;fillColor=none;align=center;verticalAlign=middle;whiteSpace=wrap;rounded=0;" parent="1" vertex="1">
          <mxGeometry x="276" y="354" width="242" height="30" as="geometry" />
        </mxCell>
        <mxCell id="dnCi5nIDvWoe9oQNXQzc-17" value="Логотип" style="ellipse;whiteSpace=wrap;html=1;" parent="1" vertex="1">
          <mxGeometry x="180" y="196.5" width="53" height="50.5" as="geometry" />
        </mxCell>
        <mxCell id="dnCi5nIDvWoe9oQNXQzc-18" value="Название" style="text;html=1;strokeColor=none;fillColor=none;align=center;verticalAlign=middle;whiteSpace=wrap;rounded=0;" parent="1" vertex="1">
          <mxGeometry x="272" y="206.75" width="60" height="30" as="geometry" />
        </mxCell>
        <mxCell id="dnCi5nIDvWoe9oQNXQzc-19" value="Количество дней до рейтинг-контроля" style="text;html=1;strokeColor=none;fillColor=none;align=center;verticalAlign=middle;whiteSpace=wrap;rounded=0;" parent="1" vertex="1">
          <mxGeometry x="276" y="384" width="216" height="30" as="geometry" />
        </mxCell>
        <mxCell id="dnCi5nIDvWoe9oQNXQzc-20" value="Количество сдаваемых экзаменов" style="text;html=1;strokeColor=none;fillColor=none;align=center;verticalAlign=middle;whiteSpace=wrap;rounded=0;" parent="1" vertex="1">
          <mxGeometry x="276" y="418.5" width="194" height="30" as="geometry" />
        </mxCell>
        <mxCell id="dnCi5nIDvWoe9oQNXQzc-22" value="&lt;font style=&quot;font-size: 22px;&quot;&gt;Приветствующая надпись&lt;/font&gt;" style="text;html=1;strokeColor=none;fillColor=none;align=center;verticalAlign=middle;whiteSpace=wrap;rounded=0;fontSize=22;" parent="1" vertex="1">
          <mxGeometry x="291" y="272" width="260" height="59" as="geometry" />
        </mxCell>
        <mxCell id="dnCi5nIDvWoe9oQNXQzc-23" value="Ученик" style="text;html=1;strokeColor=none;fillColor=none;align=center;verticalAlign=middle;whiteSpace=wrap;rounded=0;" parent="1" vertex="1">
          <mxGeometry x="347" y="150" width="60" height="30" as="geometry" />
        </mxCell>
        <mxCell id="dnCi5nIDvWoe9oQNXQzc-24" value="" style="rounded=0;whiteSpace=wrap;html=1;" parent="1" vertex="1">
          <mxGeometry x="1331" y="184" width="519" height="290" as="geometry" />
        </mxCell>
        <mxCell id="dnCi5nIDvWoe9oQNXQzc-25" value="" style="rounded=0;whiteSpace=wrap;html=1;fillColor=#f5f5f5;fontColor=#333333;strokeColor=#666666;" parent="1" vertex="1">
          <mxGeometry x="1331" y="185" width="519" height="58" as="geometry" />
        </mxCell>
        <mxCell id="dnCi5nIDvWoe9oQNXQzc-26" value="Логин пользователя" style="rounded=0;whiteSpace=wrap;html=1;" parent="1" vertex="1">
          <mxGeometry x="1710" y="203" width="120" height="22" as="geometry" />
        </mxCell>
        <mxCell id="dnCi5nIDvWoe9oQNXQzc-27" value="" style="rounded=0;whiteSpace=wrap;html=1;fillColor=#f5f5f5;fontColor=#333333;strokeColor=#666666;" parent="1" vertex="1">
          <mxGeometry x="1351" y="256" width="102" height="200" as="geometry" />
        </mxCell>
        <mxCell id="dnCi5nIDvWoe9oQNXQzc-28" value="Настройка экзаменов" style="rounded=0;whiteSpace=wrap;html=1;" parent="1" vertex="1">
          <mxGeometry x="1359" y="263" width="86" height="39" as="geometry" />
        </mxCell>
        <mxCell id="dnCi5nIDvWoe9oQNXQzc-29" value="Настройка рейтинг-контролей" style="rounded=0;whiteSpace=wrap;html=1;" parent="1" vertex="1">
          <mxGeometry x="1359" y="310" width="86" height="43" as="geometry" />
        </mxCell>
        <mxCell id="dnCi5nIDvWoe9oQNXQzc-30" value="Настройка групп" style="rounded=0;whiteSpace=wrap;html=1;" parent="1" vertex="1">
          <mxGeometry x="1359" y="358" width="86" height="39" as="geometry" />
        </mxCell>
        <mxCell id="dnCi5nIDvWoe9oQNXQzc-31" value="Добавить предмет" style="rounded=0;whiteSpace=wrap;html=1;" parent="1" vertex="1">
          <mxGeometry x="1359" y="405" width="86" height="39" as="geometry" />
        </mxCell>
        <mxCell id="dnCi5nIDvWoe9oQNXQzc-32" value="Какая-то информация" style="text;html=1;strokeColor=none;fillColor=none;align=center;verticalAlign=middle;whiteSpace=wrap;rounded=0;" parent="1" vertex="1">
          <mxGeometry x="1544.5" y="350" width="151" height="30" as="geometry" />
        </mxCell>
        <mxCell id="dnCi5nIDvWoe9oQNXQzc-33" value="Логотип" style="ellipse;whiteSpace=wrap;html=1;" parent="1" vertex="1">
          <mxGeometry x="1379" y="187.5" width="53" height="50.5" as="geometry" />
        </mxCell>
        <mxCell id="dnCi5nIDvWoe9oQNXQzc-34" value="Название" style="text;html=1;strokeColor=none;fillColor=none;align=center;verticalAlign=middle;whiteSpace=wrap;rounded=0;" parent="1" vertex="1">
          <mxGeometry x="1471" y="197.75" width="60" height="30" as="geometry" />
        </mxCell>
        <mxCell id="dnCi5nIDvWoe9oQNXQzc-37" value="&lt;font style=&quot;font-size: 22px;&quot;&gt;Приветствующая надпись&lt;/font&gt;" style="text;html=1;strokeColor=none;fillColor=none;align=center;verticalAlign=middle;whiteSpace=wrap;rounded=0;fontSize=22;" parent="1" vertex="1">
          <mxGeometry x="1490" y="263" width="260" height="59" as="geometry" />
        </mxCell>
        <mxCell id="dnCi5nIDvWoe9oQNXQzc-38" value="Заведующий кафедрой" style="text;html=1;strokeColor=none;fillColor=none;align=center;verticalAlign=middle;whiteSpace=wrap;rounded=0;" parent="1" vertex="1">
          <mxGeometry x="1531" y="151" width="148.5" height="30" as="geometry" />
        </mxCell>
        <mxCell id="dnCi5nIDvWoe9oQNXQzc-39" value="" style="rounded=0;whiteSpace=wrap;html=1;" parent="1" vertex="1">
          <mxGeometry x="735" y="184" width="519" height="290" as="geometry" />
        </mxCell>
        <mxCell id="dnCi5nIDvWoe9oQNXQzc-40" value="" style="rounded=0;whiteSpace=wrap;html=1;fillColor=#f5f5f5;fontColor=#333333;strokeColor=#666666;" parent="1" vertex="1">
          <mxGeometry x="735" y="185" width="519" height="58" as="geometry" />
        </mxCell>
        <mxCell id="dnCi5nIDvWoe9oQNXQzc-41" value="Логин пользователя" style="rounded=0;whiteSpace=wrap;html=1;" parent="1" vertex="1">
          <mxGeometry x="1114" y="203" width="120" height="22" as="geometry" />
        </mxCell>
        <mxCell id="dnCi5nIDvWoe9oQNXQzc-42" value="" style="rounded=0;whiteSpace=wrap;html=1;fillColor=#f5f5f5;fontColor=#333333;strokeColor=#666666;" parent="1" vertex="1">
          <mxGeometry x="755" y="256" width="102" height="200" as="geometry" />
        </mxCell>
        <mxCell id="dnCi5nIDvWoe9oQNXQzc-43" value="Проставить оценки экзаменов" style="rounded=0;whiteSpace=wrap;html=1;" parent="1" vertex="1">
          <mxGeometry x="763" y="263" width="86" height="43" as="geometry" />
        </mxCell>
        <mxCell id="dnCi5nIDvWoe9oQNXQzc-44" value="Проставить оценки" style="rounded=0;whiteSpace=wrap;html=1;" parent="1" vertex="1">
          <mxGeometry x="763" y="310" width="86" height="39" as="geometry" />
        </mxCell>
        <mxCell id="dnCi5nIDvWoe9oQNXQzc-45" value="Проставить посещаемость" style="rounded=0;whiteSpace=wrap;html=1;" parent="1" vertex="1">
          <mxGeometry x="763" y="358" width="86" height="39" as="geometry" />
        </mxCell>
        <mxCell id="dnCi5nIDvWoe9oQNXQzc-46" value="Просмотр групп" style="rounded=0;whiteSpace=wrap;html=1;" parent="1" vertex="1">
          <mxGeometry x="763" y="405" width="86" height="39" as="geometry" />
        </mxCell>
        <mxCell id="dnCi5nIDvWoe9oQNXQzc-47" value="Количество дней до ближайшего экзамена" style="text;html=1;strokeColor=none;fillColor=none;align=center;verticalAlign=middle;whiteSpace=wrap;rounded=0;" parent="1" vertex="1">
          <mxGeometry x="875" y="345" width="242" height="30" as="geometry" />
        </mxCell>
        <mxCell id="dnCi5nIDvWoe9oQNXQzc-48" value="Логотип" style="ellipse;whiteSpace=wrap;html=1;" parent="1" vertex="1">
          <mxGeometry x="783" y="187.5" width="53" height="50.5" as="geometry" />
        </mxCell>
        <mxCell id="dnCi5nIDvWoe9oQNXQzc-49" value="Название" style="text;html=1;strokeColor=none;fillColor=none;align=center;verticalAlign=middle;whiteSpace=wrap;rounded=0;" parent="1" vertex="1">
          <mxGeometry x="875" y="197.75" width="60" height="30" as="geometry" />
        </mxCell>
        <mxCell id="dnCi5nIDvWoe9oQNXQzc-50" value="Количество дней до рейтинг-контроля" style="text;html=1;strokeColor=none;fillColor=none;align=center;verticalAlign=middle;whiteSpace=wrap;rounded=0;" parent="1" vertex="1">
          <mxGeometry x="875" y="376" width="216" height="30" as="geometry" />
        </mxCell>
        <mxCell id="dnCi5nIDvWoe9oQNXQzc-51" value="Количество проверяемых экзаменов" style="text;html=1;strokeColor=none;fillColor=none;align=center;verticalAlign=middle;whiteSpace=wrap;rounded=0;" parent="1" vertex="1">
          <mxGeometry x="875" y="409.5" width="207" height="30" as="geometry" />
        </mxCell>
        <mxCell id="dnCi5nIDvWoe9oQNXQzc-52" value="&lt;font style=&quot;font-size: 22px;&quot;&gt;Приветствующая надпись&lt;/font&gt;" style="text;html=1;strokeColor=none;fillColor=none;align=center;verticalAlign=middle;whiteSpace=wrap;rounded=0;fontSize=22;" parent="1" vertex="1">
          <mxGeometry x="894" y="263" width="260" height="59" as="geometry" />
        </mxCell>
        <mxCell id="dnCi5nIDvWoe9oQNXQzc-53" value="Преподаватель" style="text;html=1;strokeColor=none;fillColor=none;align=center;verticalAlign=middle;whiteSpace=wrap;rounded=0;" parent="1" vertex="1">
          <mxGeometry x="950" y="141" width="60" height="30" as="geometry" />
        </mxCell>
        <mxCell id="xq_0MHERkX2uio41S-Xp-1" value="" style="rounded=0;whiteSpace=wrap;html=1;" parent="1" vertex="1">
          <mxGeometry x="132" y="535" width="519" height="290" as="geometry" />
        </mxCell>
        <mxCell id="xq_0MHERkX2uio41S-Xp-2" value="" style="rounded=0;whiteSpace=wrap;html=1;fillColor=#f5f5f5;fontColor=#333333;strokeColor=#666666;" parent="1" vertex="1">
          <mxGeometry x="132" y="536" width="519" height="58" as="geometry" />
        </mxCell>
        <mxCell id="xq_0MHERkX2uio41S-Xp-3" value="Логин пользователя" style="rounded=0;whiteSpace=wrap;html=1;" parent="1" vertex="1">
          <mxGeometry x="511" y="554" width="120" height="22" as="geometry" />
        </mxCell>
        <mxCell id="xq_0MHERkX2uio41S-Xp-4" value="" style="rounded=0;whiteSpace=wrap;html=1;fillColor=#f5f5f5;fontColor=#333333;strokeColor=#666666;" parent="1" vertex="1">
          <mxGeometry x="152" y="607" width="102" height="200" as="geometry" />
        </mxCell>
        <mxCell id="xq_0MHERkX2uio41S-Xp-16" value="" style="shape=corner;whiteSpace=wrap;html=1;rotation=90;dx=36;dy=377;" parent="1" vertex="1">
          <mxGeometry x="309.91" y="465.09" width="181.81" height="480.12" as="geometry" />
        </mxCell>
        <mxCell id="xq_0MHERkX2uio41S-Xp-6" value="Сданные экзамены" style="rounded=0;whiteSpace=wrap;html=1;" parent="1" vertex="1">
          <mxGeometry x="160" y="661" width="86" height="39" as="geometry" />
        </mxCell>
        <mxCell id="xq_0MHERkX2uio41S-Xp-7" value="Рейтинг-контроль" style="rounded=0;whiteSpace=wrap;html=1;" parent="1" vertex="1">
          <mxGeometry x="160" y="709" width="86" height="39" as="geometry" />
        </mxCell>
        <mxCell id="xq_0MHERkX2uio41S-Xp-8" value="Посещаемость" style="rounded=0;whiteSpace=wrap;html=1;" parent="1" vertex="1">
          <mxGeometry x="160" y="756" width="86" height="39" as="geometry" />
        </mxCell>
        <mxCell id="xq_0MHERkX2uio41S-Xp-10" value="Логотип" style="ellipse;whiteSpace=wrap;html=1;" parent="1" vertex="1">
          <mxGeometry x="180" y="538.5" width="53" height="50.5" as="geometry" />
        </mxCell>
        <mxCell id="xq_0MHERkX2uio41S-Xp-11" value="Название" style="text;html=1;strokeColor=none;fillColor=none;align=center;verticalAlign=middle;whiteSpace=wrap;rounded=0;" parent="1" vertex="1">
          <mxGeometry x="272" y="548.75" width="60" height="30" as="geometry" />
        </mxCell>
        <mxCell id="xq_0MHERkX2uio41S-Xp-18" value="Предстоящие экзамены" style="text;html=1;strokeColor=none;fillColor=none;align=center;verticalAlign=middle;whiteSpace=wrap;rounded=0;" parent="1" vertex="1">
          <mxGeometry x="161" y="613" width="84" height="37" as="geometry" />
        </mxCell>
        <mxCell id="xq_0MHERkX2uio41S-Xp-19" value="" style="rounded=0;whiteSpace=wrap;html=1;fillColor=#f5f5f5;fontColor=#333333;strokeColor=#666666;" parent="1" vertex="1">
          <mxGeometry x="270" y="628" width="338" height="158" as="geometry" />
        </mxCell>
        <mxCell id="_K62Qx7TpKKyFprMKhf6-1" value="" style="rounded=0;whiteSpace=wrap;html=1;" parent="1" vertex="1">
          <mxGeometry x="286" y="636" width="311" height="21" as="geometry" />
        </mxCell>
        <mxCell id="xq_0MHERkX2uio41S-Xp-20" value="Дисциплина" style="text;html=1;strokeColor=none;fillColor=none;align=center;verticalAlign=middle;whiteSpace=wrap;rounded=0;" parent="1" vertex="1">
          <mxGeometry x="272" y="631" width="118" height="30" as="geometry" />
        </mxCell>
        <mxCell id="xq_0MHERkX2uio41S-Xp-21" value="Тип контроля" style="text;html=1;strokeColor=none;fillColor=none;align=center;verticalAlign=middle;whiteSpace=wrap;rounded=0;" parent="1" vertex="1">
          <mxGeometry x="395" y="631" width="91" height="30" as="geometry" />
        </mxCell>
        <mxCell id="xq_0MHERkX2uio41S-Xp-22" value="Дата/семестр" style="text;html=1;strokeColor=none;fillColor=none;align=center;verticalAlign=middle;whiteSpace=wrap;rounded=0;" parent="1" vertex="1">
          <mxGeometry x="514" y="631" width="82" height="30" as="geometry" />
        </mxCell>
        <mxCell id="_K62Qx7TpKKyFprMKhf6-2" value="" style="rounded=0;whiteSpace=wrap;html=1;fillColor=#f5f5f5;fontColor=#333333;strokeColor=#666666;" parent="1" vertex="1">
          <mxGeometry x="286" y="665.5" width="311" height="21" as="geometry" />
        </mxCell>
        <mxCell id="xq_0MHERkX2uio41S-Xp-32" value="Название" style="text;html=1;strokeColor=none;fillColor=none;align=center;verticalAlign=middle;whiteSpace=wrap;rounded=0;" parent="1" vertex="1">
          <mxGeometry x="272" y="661" width="118" height="30" as="geometry" />
        </mxCell>
        <mxCell id="xq_0MHERkX2uio41S-Xp-33" value="Тип" style="text;html=1;strokeColor=none;fillColor=none;align=center;verticalAlign=middle;whiteSpace=wrap;rounded=0;" parent="1" vertex="1">
          <mxGeometry x="403" y="661" width="73" height="30" as="geometry" />
        </mxCell>
        <mxCell id="xq_0MHERkX2uio41S-Xp-34" value="Дата/семестр" style="text;html=1;strokeColor=none;fillColor=none;align=center;verticalAlign=middle;whiteSpace=wrap;rounded=0;" parent="1" vertex="1">
          <mxGeometry x="514" y="661" width="82" height="30" as="geometry" />
        </mxCell>
        <mxCell id="_K62Qx7TpKKyFprMKhf6-4" value="" style="rounded=0;whiteSpace=wrap;html=1;fillColor=#f5f5f5;fontColor=#333333;strokeColor=#666666;" parent="1" vertex="1">
          <mxGeometry x="286" y="692.5" width="311" height="21" as="geometry" />
        </mxCell>
        <mxCell id="xq_0MHERkX2uio41S-Xp-37" value="Дата/семестр" style="text;html=1;strokeColor=none;fillColor=none;align=center;verticalAlign=middle;whiteSpace=wrap;rounded=0;" parent="1" vertex="1">
          <mxGeometry x="514" y="688" width="82" height="30" as="geometry" />
        </mxCell>
        <mxCell id="_K62Qx7TpKKyFprMKhf6-5" value="" style="rounded=0;whiteSpace=wrap;html=1;fillColor=#f5f5f5;fontColor=#333333;strokeColor=#666666;" parent="1" vertex="1">
          <mxGeometry x="285" y="721" width="311" height="21" as="geometry" />
        </mxCell>
        <mxCell id="_K62Qx7TpKKyFprMKhf6-11" value="" style="rounded=0;whiteSpace=wrap;html=1;fillColor=#f5f5f5;fontColor=#333333;strokeColor=#666666;" parent="1" vertex="1">
          <mxGeometry x="286" y="748" width="311" height="21" as="geometry" />
        </mxCell>
        <mxCell id="xq_0MHERkX2uio41S-Xp-40" value="Дата/семестр" style="text;html=1;strokeColor=none;fillColor=none;align=center;verticalAlign=middle;whiteSpace=wrap;rounded=0;" parent="1" vertex="1">
          <mxGeometry x="514" y="718" width="82" height="30" as="geometry" />
        </mxCell>
        <mxCell id="xq_0MHERkX2uio41S-Xp-43" value="Дата/семестр" style="text;html=1;strokeColor=none;fillColor=none;align=center;verticalAlign=middle;whiteSpace=wrap;rounded=0;" parent="1" vertex="1">
          <mxGeometry x="514" y="743.5" width="82" height="30" as="geometry" />
        </mxCell>
        <mxCell id="_K62Qx7TpKKyFprMKhf6-7" value="Тип" style="text;html=1;strokeColor=none;fillColor=none;align=center;verticalAlign=middle;whiteSpace=wrap;rounded=0;" parent="1" vertex="1">
          <mxGeometry x="402.5" y="688" width="73" height="30" as="geometry" />
        </mxCell>
        <mxCell id="_K62Qx7TpKKyFprMKhf6-9" value="Тип" style="text;html=1;strokeColor=none;fillColor=none;align=center;verticalAlign=middle;whiteSpace=wrap;rounded=0;" parent="1" vertex="1">
          <mxGeometry x="402.5" y="716.5" width="73" height="30" as="geometry" />
        </mxCell>
        <mxCell id="_K62Qx7TpKKyFprMKhf6-10" value="Тип" style="text;html=1;strokeColor=none;fillColor=none;align=center;verticalAlign=middle;whiteSpace=wrap;rounded=0;" parent="1" vertex="1">
          <mxGeometry x="402.5" y="743.5" width="73" height="30" as="geometry" />
        </mxCell>
        <mxCell id="_K62Qx7TpKKyFprMKhf6-12" value="Название" style="text;html=1;strokeColor=none;fillColor=none;align=center;verticalAlign=middle;whiteSpace=wrap;rounded=0;" parent="1" vertex="1">
          <mxGeometry x="272" y="689.87" width="118" height="30" as="geometry" />
        </mxCell>
        <mxCell id="_K62Qx7TpKKyFprMKhf6-13" value="Название" style="text;html=1;strokeColor=none;fillColor=none;align=center;verticalAlign=middle;whiteSpace=wrap;rounded=0;" parent="1" vertex="1">
          <mxGeometry x="272" y="713.5" width="118" height="30" as="geometry" />
        </mxCell>
        <mxCell id="_K62Qx7TpKKyFprMKhf6-14" value="Название" style="text;html=1;strokeColor=none;fillColor=none;align=center;verticalAlign=middle;whiteSpace=wrap;rounded=0;" parent="1" vertex="1">
          <mxGeometry x="276" y="743.5" width="118" height="30" as="geometry" />
        </mxCell>
        <mxCell id="_K62Qx7TpKKyFprMKhf6-15" value="" style="rounded=0;whiteSpace=wrap;html=1;" parent="1" vertex="1">
          <mxGeometry x="137.5" y="858.38" width="519" height="290" as="geometry" />
        </mxCell>
        <mxCell id="_K62Qx7TpKKyFprMKhf6-16" value="" style="rounded=0;whiteSpace=wrap;html=1;fillColor=#f5f5f5;fontColor=#333333;strokeColor=#666666;" parent="1" vertex="1">
          <mxGeometry x="137.5" y="859.38" width="519" height="58" as="geometry" />
        </mxCell>
        <mxCell id="_K62Qx7TpKKyFprMKhf6-17" value="Логин пользователя" style="rounded=0;whiteSpace=wrap;html=1;" parent="1" vertex="1">
          <mxGeometry x="516.5" y="877.38" width="120" height="22" as="geometry" />
        </mxCell>
        <mxCell id="_K62Qx7TpKKyFprMKhf6-18" value="" style="rounded=0;whiteSpace=wrap;html=1;fillColor=#f5f5f5;fontColor=#333333;strokeColor=#666666;" parent="1" vertex="1">
          <mxGeometry x="157.5" y="930.38" width="102" height="200" as="geometry" />
        </mxCell>
        <mxCell id="_K62Qx7TpKKyFprMKhf6-21" value="Рейтинг-контроль" style="rounded=0;whiteSpace=wrap;html=1;" parent="1" vertex="1">
          <mxGeometry x="165.5" y="1032.38" width="86" height="39" as="geometry" />
        </mxCell>
        <mxCell id="_K62Qx7TpKKyFprMKhf6-22" value="Посещаемость" style="rounded=0;whiteSpace=wrap;html=1;" parent="1" vertex="1">
          <mxGeometry x="165.5" y="1079.38" width="86" height="39" as="geometry" />
        </mxCell>
        <mxCell id="_K62Qx7TpKKyFprMKhf6-23" value="Логотип" style="ellipse;whiteSpace=wrap;html=1;" parent="1" vertex="1">
          <mxGeometry x="185.5" y="861.88" width="53" height="50.5" as="geometry" />
        </mxCell>
        <mxCell id="_K62Qx7TpKKyFprMKhf6-24" value="Название" style="text;html=1;strokeColor=none;fillColor=none;align=center;verticalAlign=middle;whiteSpace=wrap;rounded=0;" parent="1" vertex="1">
          <mxGeometry x="277.5" y="872.13" width="60" height="30" as="geometry" />
        </mxCell>
        <mxCell id="_K62Qx7TpKKyFprMKhf6-50" value="" style="shape=tee;whiteSpace=wrap;html=1;rotation=90;dx=34;dy=260;" parent="1" vertex="1">
          <mxGeometry x="285.43" y="822.08" width="130.65" height="367.86" as="geometry" />
        </mxCell>
        <mxCell id="_K62Qx7TpKKyFprMKhf6-51" value="" style="rounded=0;whiteSpace=wrap;html=1;" parent="1" vertex="1">
          <mxGeometry x="267" y="935" width="376" height="185" as="geometry" />
        </mxCell>
        <mxCell id="_K62Qx7TpKKyFprMKhf6-49" value="Предстоящие экзамены" style="rounded=0;whiteSpace=wrap;html=1;" parent="1" vertex="1">
          <mxGeometry x="168" y="941.3800000000001" width="86" height="39" as="geometry" />
        </mxCell>
        <mxCell id="_K62Qx7TpKKyFprMKhf6-26" value="" style="rounded=0;whiteSpace=wrap;html=1;fillColor=#f5f5f5;fontColor=#333333;strokeColor=#666666;" parent="1" vertex="1">
          <mxGeometry x="275.5" y="951.38" width="358.5" height="158" as="geometry" />
        </mxCell>
        <mxCell id="_K62Qx7TpKKyFprMKhf6-27" value="" style="rounded=0;whiteSpace=wrap;html=1;" parent="1" vertex="1">
          <mxGeometry x="279" y="959.38" width="347" height="21" as="geometry" />
        </mxCell>
        <mxCell id="_K62Qx7TpKKyFprMKhf6-28" value="Дисциплина" style="text;html=1;strokeColor=none;fillColor=none;align=center;verticalAlign=middle;whiteSpace=wrap;rounded=0;" parent="1" vertex="1">
          <mxGeometry x="284.85" y="954.88" width="89.5" height="30" as="geometry" />
        </mxCell>
        <mxCell id="_K62Qx7TpKKyFprMKhf6-29" value="Тип контроля" style="text;html=1;strokeColor=none;fillColor=none;align=center;verticalAlign=middle;whiteSpace=wrap;rounded=0;" parent="1" vertex="1">
          <mxGeometry x="370" y="958" width="91" height="30" as="geometry" />
        </mxCell>
        <mxCell id="_K62Qx7TpKKyFprMKhf6-30" value="Дата/семестр" style="text;html=1;strokeColor=none;fillColor=none;align=center;verticalAlign=middle;whiteSpace=wrap;rounded=0;" parent="1" vertex="1">
          <mxGeometry x="470" y="956" width="82" height="30" as="geometry" />
        </mxCell>
        <mxCell id="_K62Qx7TpKKyFprMKhf6-31" value="" style="rounded=0;whiteSpace=wrap;html=1;fillColor=#f5f5f5;fontColor=#333333;strokeColor=#666666;" parent="1" vertex="1">
          <mxGeometry x="279" y="988.88" width="346" height="21" as="geometry" />
        </mxCell>
        <mxCell id="_K62Qx7TpKKyFprMKhf6-32" value="Название" style="text;html=1;strokeColor=none;fillColor=none;align=center;verticalAlign=middle;whiteSpace=wrap;rounded=0;" parent="1" vertex="1">
          <mxGeometry x="277.5" y="984.38" width="82.5" height="30" as="geometry" />
        </mxCell>
        <mxCell id="_K62Qx7TpKKyFprMKhf6-33" value="Тип" style="text;html=1;strokeColor=none;fillColor=none;align=center;verticalAlign=middle;whiteSpace=wrap;rounded=0;" parent="1" vertex="1">
          <mxGeometry x="375.5" y="989" width="73" height="30" as="geometry" />
        </mxCell>
        <mxCell id="_K62Qx7TpKKyFprMKhf6-34" value="Дата/семестр" style="text;html=1;strokeColor=none;fillColor=none;align=center;verticalAlign=middle;whiteSpace=wrap;rounded=0;" parent="1" vertex="1">
          <mxGeometry x="470" y="986" width="82" height="30" as="geometry" />
        </mxCell>
        <mxCell id="_K62Qx7TpKKyFprMKhf6-35" value="" style="rounded=0;whiteSpace=wrap;html=1;fillColor=#f5f5f5;fontColor=#333333;strokeColor=#666666;" parent="1" vertex="1">
          <mxGeometry x="279" y="1015.88" width="346" height="21" as="geometry" />
        </mxCell>
        <mxCell id="_K62Qx7TpKKyFprMKhf6-36" value="Дата/семестр" style="text;html=1;strokeColor=none;fillColor=none;align=center;verticalAlign=middle;whiteSpace=wrap;rounded=0;" parent="1" vertex="1">
          <mxGeometry x="470" y="1013" width="82" height="30" as="geometry" />
        </mxCell>
        <mxCell id="_K62Qx7TpKKyFprMKhf6-37" value="" style="rounded=0;whiteSpace=wrap;html=1;fillColor=#f5f5f5;fontColor=#333333;strokeColor=#666666;" parent="1" vertex="1">
          <mxGeometry x="281" y="1044.38" width="343" height="21" as="geometry" />
        </mxCell>
        <mxCell id="_K62Qx7TpKKyFprMKhf6-38" value="" style="rounded=0;whiteSpace=wrap;html=1;fillColor=#f5f5f5;fontColor=#333333;strokeColor=#666666;" parent="1" vertex="1">
          <mxGeometry x="280" y="1071.38" width="343" height="21" as="geometry" />
        </mxCell>
        <mxCell id="_K62Qx7TpKKyFprMKhf6-39" value="Дата/семестр" style="text;html=1;strokeColor=none;fillColor=none;align=center;verticalAlign=middle;whiteSpace=wrap;rounded=0;" parent="1" vertex="1">
          <mxGeometry x="470" y="1043" width="82" height="30" as="geometry" />
        </mxCell>
        <mxCell id="_K62Qx7TpKKyFprMKhf6-40" value="Дата/семестр" style="text;html=1;strokeColor=none;fillColor=none;align=center;verticalAlign=middle;whiteSpace=wrap;rounded=0;" parent="1" vertex="1">
          <mxGeometry x="470" y="1068.5" width="82" height="30" as="geometry" />
        </mxCell>
        <mxCell id="_K62Qx7TpKKyFprMKhf6-41" value="Тип" style="text;html=1;strokeColor=none;fillColor=none;align=center;verticalAlign=middle;whiteSpace=wrap;rounded=0;" parent="1" vertex="1">
          <mxGeometry x="379" y="1015.62" width="73" height="30" as="geometry" />
        </mxCell>
        <mxCell id="_K62Qx7TpKKyFprMKhf6-42" value="Тип" style="text;html=1;strokeColor=none;fillColor=none;align=center;verticalAlign=middle;whiteSpace=wrap;rounded=0;" parent="1" vertex="1">
          <mxGeometry x="379" y="1043" width="73" height="30" as="geometry" />
        </mxCell>
        <mxCell id="_K62Qx7TpKKyFprMKhf6-43" value="Тип" style="text;html=1;strokeColor=none;fillColor=none;align=center;verticalAlign=middle;whiteSpace=wrap;rounded=0;" parent="1" vertex="1">
          <mxGeometry x="379" y="1068.5" width="73" height="30" as="geometry" />
        </mxCell>
        <mxCell id="_K62Qx7TpKKyFprMKhf6-44" value="Название" style="text;html=1;strokeColor=none;fillColor=none;align=center;verticalAlign=middle;whiteSpace=wrap;rounded=0;" parent="1" vertex="1">
          <mxGeometry x="277.5" y="1013.25" width="81.5" height="30" as="geometry" />
        </mxCell>
        <mxCell id="_K62Qx7TpKKyFprMKhf6-45" value="Название" style="text;html=1;strokeColor=none;fillColor=none;align=center;verticalAlign=middle;whiteSpace=wrap;rounded=0;" parent="1" vertex="1">
          <mxGeometry x="281.5" y="1039.88" width="77.5" height="30" as="geometry" />
        </mxCell>
        <mxCell id="_K62Qx7TpKKyFprMKhf6-46" value="Название" style="text;html=1;strokeColor=none;fillColor=none;align=center;verticalAlign=middle;whiteSpace=wrap;rounded=0;" parent="1" vertex="1">
          <mxGeometry x="281.5" y="1066.88" width="77.5" height="30" as="geometry" />
        </mxCell>
        <mxCell id="_K62Qx7TpKKyFprMKhf6-47" value="Сданные экзамены" style="text;html=1;strokeColor=none;fillColor=none;align=center;verticalAlign=middle;whiteSpace=wrap;rounded=0;" parent="1" vertex="1">
          <mxGeometry x="166" y="988.01" width="90" height="36" as="geometry" />
        </mxCell>
        <mxCell id="_K62Qx7TpKKyFprMKhf6-55" value="Оценка" style="text;html=1;strokeColor=none;fillColor=none;align=center;verticalAlign=middle;whiteSpace=wrap;rounded=0;" parent="1" vertex="1">
          <mxGeometry x="549" y="955.13" width="82" height="30" as="geometry" />
        </mxCell>
        <mxCell id="_K62Qx7TpKKyFprMKhf6-56" value="Отл" style="text;html=1;strokeColor=none;fillColor=none;align=center;verticalAlign=middle;whiteSpace=wrap;rounded=0;" parent="1" vertex="1">
          <mxGeometry x="549" y="985.13" width="82" height="30" as="geometry" />
        </mxCell>
        <mxCell id="_K62Qx7TpKKyFprMKhf6-57" value="Хор" style="text;html=1;strokeColor=none;fillColor=none;align=center;verticalAlign=middle;whiteSpace=wrap;rounded=0;" parent="1" vertex="1">
          <mxGeometry x="549" y="1012.13" width="82" height="30" as="geometry" />
        </mxCell>
        <mxCell id="_K62Qx7TpKKyFprMKhf6-58" value="Удв" style="text;html=1;strokeColor=none;fillColor=none;align=center;verticalAlign=middle;whiteSpace=wrap;rounded=0;" parent="1" vertex="1">
          <mxGeometry x="549" y="1042.13" width="82" height="30" as="geometry" />
        </mxCell>
        <mxCell id="_K62Qx7TpKKyFprMKhf6-59" value="Неуд" style="text;html=1;strokeColor=none;fillColor=none;align=center;verticalAlign=middle;whiteSpace=wrap;rounded=0;" parent="1" vertex="1">
          <mxGeometry x="549" y="1067.63" width="82" height="30" as="geometry" />
        </mxCell>
        <mxCell id="_K62Qx7TpKKyFprMKhf6-60" value="" style="rounded=0;whiteSpace=wrap;html=1;" parent="1" vertex="1">
          <mxGeometry x="141.32" y="1178.88" width="519" height="290" as="geometry" />
        </mxCell>
        <mxCell id="_K62Qx7TpKKyFprMKhf6-61" value="" style="rounded=0;whiteSpace=wrap;html=1;fillColor=#f5f5f5;fontColor=#333333;strokeColor=#666666;" parent="1" vertex="1">
          <mxGeometry x="141.32" y="1179.88" width="519" height="58" as="geometry" />
        </mxCell>
        <mxCell id="_K62Qx7TpKKyFprMKhf6-62" value="Логин пользователя" style="rounded=0;whiteSpace=wrap;html=1;" parent="1" vertex="1">
          <mxGeometry x="520.32" y="1197.88" width="120" height="22" as="geometry" />
        </mxCell>
        <mxCell id="_K62Qx7TpKKyFprMKhf6-63" value="" style="rounded=0;whiteSpace=wrap;html=1;fillColor=#f5f5f5;fontColor=#333333;strokeColor=#666666;" parent="1" vertex="1">
          <mxGeometry x="161.32" y="1250.88" width="102" height="200" as="geometry" />
        </mxCell>
        <mxCell id="_K62Qx7TpKKyFprMKhf6-65" value="Посещаемость" style="rounded=0;whiteSpace=wrap;html=1;" parent="1" vertex="1">
          <mxGeometry x="169.32" y="1399.88" width="86" height="39" as="geometry" />
        </mxCell>
        <mxCell id="_K62Qx7TpKKyFprMKhf6-66" value="Логотип" style="ellipse;whiteSpace=wrap;html=1;" parent="1" vertex="1">
          <mxGeometry x="189.32" y="1182.38" width="53" height="50.5" as="geometry" />
        </mxCell>
        <mxCell id="_K62Qx7TpKKyFprMKhf6-67" value="Название" style="text;html=1;strokeColor=none;fillColor=none;align=center;verticalAlign=middle;whiteSpace=wrap;rounded=0;" parent="1" vertex="1">
          <mxGeometry x="281.32" y="1192.63" width="60" height="30" as="geometry" />
        </mxCell>
        <mxCell id="_K62Qx7TpKKyFprMKhf6-68" value="" style="shape=tee;whiteSpace=wrap;html=1;rotation=90;dx=36;dy=260;" parent="1" vertex="1">
          <mxGeometry x="290.41" y="1188.38" width="130.65" height="370.24" as="geometry" />
        </mxCell>
        <mxCell id="_K62Qx7TpKKyFprMKhf6-69" value="" style="rounded=0;whiteSpace=wrap;html=1;" parent="1" vertex="1">
          <mxGeometry x="270.82" y="1255.5" width="376" height="185" as="geometry" />
        </mxCell>
        <mxCell id="_K62Qx7TpKKyFprMKhf6-70" value="Предстоящие экзамены" style="rounded=0;whiteSpace=wrap;html=1;" parent="1" vertex="1">
          <mxGeometry x="171.82" y="1261.88" width="86" height="39" as="geometry" />
        </mxCell>
        <mxCell id="_K62Qx7TpKKyFprMKhf6-71" value="" style="rounded=0;whiteSpace=wrap;html=1;fillColor=#f5f5f5;fontColor=#333333;strokeColor=#666666;" parent="1" vertex="1">
          <mxGeometry x="279.32" y="1271.88" width="358.5" height="158" as="geometry" />
        </mxCell>
        <mxCell id="_K62Qx7TpKKyFprMKhf6-72" value="" style="rounded=0;whiteSpace=wrap;html=1;" parent="1" vertex="1">
          <mxGeometry x="282.82" y="1279.88" width="347" height="21" as="geometry" />
        </mxCell>
        <mxCell id="_K62Qx7TpKKyFprMKhf6-73" value="Дисциплина" style="text;html=1;strokeColor=none;fillColor=none;align=center;verticalAlign=middle;whiteSpace=wrap;rounded=0;" parent="1" vertex="1">
          <mxGeometry x="288.67" y="1275.38" width="89.5" height="30" as="geometry" />
        </mxCell>
        <mxCell id="_K62Qx7TpKKyFprMKhf6-74" value="Балы" style="text;html=1;strokeColor=none;fillColor=none;align=center;verticalAlign=middle;whiteSpace=wrap;rounded=0;" parent="1" vertex="1">
          <mxGeometry x="375.5" y="1274.88" width="91" height="30" as="geometry" />
        </mxCell>
        <mxCell id="_K62Qx7TpKKyFprMKhf6-75" value="Балы" style="text;html=1;strokeColor=none;fillColor=none;align=center;verticalAlign=middle;whiteSpace=wrap;rounded=0;" parent="1" vertex="1">
          <mxGeometry x="473.82" y="1276.5" width="82" height="30" as="geometry" />
        </mxCell>
        <mxCell id="_K62Qx7TpKKyFprMKhf6-76" value="" style="rounded=0;whiteSpace=wrap;html=1;fillColor=#f5f5f5;fontColor=#333333;strokeColor=#666666;" parent="1" vertex="1">
          <mxGeometry x="282.82" y="1309.38" width="346" height="21" as="geometry" />
        </mxCell>
        <mxCell id="_K62Qx7TpKKyFprMKhf6-77" value="Название" style="text;html=1;strokeColor=none;fillColor=none;align=center;verticalAlign=middle;whiteSpace=wrap;rounded=0;" parent="1" vertex="1">
          <mxGeometry x="281.32" y="1304.88" width="82.5" height="30" as="geometry" />
        </mxCell>
        <mxCell id="_K62Qx7TpKKyFprMKhf6-78" value="1" style="text;html=1;strokeColor=none;fillColor=none;align=center;verticalAlign=middle;whiteSpace=wrap;rounded=0;" parent="1" vertex="1">
          <mxGeometry x="379.32" y="1309.5" width="73" height="30" as="geometry" />
        </mxCell>
        <mxCell id="_K62Qx7TpKKyFprMKhf6-79" value="2" style="text;html=1;strokeColor=none;fillColor=none;align=center;verticalAlign=middle;whiteSpace=wrap;rounded=0;" parent="1" vertex="1">
          <mxGeometry x="473.82" y="1306.5" width="82" height="30" as="geometry" />
        </mxCell>
        <mxCell id="_K62Qx7TpKKyFprMKhf6-80" value="" style="rounded=0;whiteSpace=wrap;html=1;fillColor=#f5f5f5;fontColor=#333333;strokeColor=#666666;" parent="1" vertex="1">
          <mxGeometry x="282.82" y="1336.38" width="346" height="21" as="geometry" />
        </mxCell>
        <mxCell id="_K62Qx7TpKKyFprMKhf6-81" value="5" style="text;html=1;strokeColor=none;fillColor=none;align=center;verticalAlign=middle;whiteSpace=wrap;rounded=0;" parent="1" vertex="1">
          <mxGeometry x="473.82" y="1333.5" width="82" height="30" as="geometry" />
        </mxCell>
        <mxCell id="_K62Qx7TpKKyFprMKhf6-82" value="" style="rounded=0;whiteSpace=wrap;html=1;fillColor=#f5f5f5;fontColor=#333333;strokeColor=#666666;" parent="1" vertex="1">
          <mxGeometry x="284.82" y="1364.88" width="343" height="21" as="geometry" />
        </mxCell>
        <mxCell id="_K62Qx7TpKKyFprMKhf6-83" value="" style="rounded=0;whiteSpace=wrap;html=1;fillColor=#f5f5f5;fontColor=#333333;strokeColor=#666666;" parent="1" vertex="1">
          <mxGeometry x="283.82" y="1391.88" width="343" height="21" as="geometry" />
        </mxCell>
        <mxCell id="_K62Qx7TpKKyFprMKhf6-84" value="12" style="text;html=1;strokeColor=none;fillColor=none;align=center;verticalAlign=middle;whiteSpace=wrap;rounded=0;" parent="1" vertex="1">
          <mxGeometry x="473.82" y="1363.5" width="82" height="30" as="geometry" />
        </mxCell>
        <mxCell id="_K62Qx7TpKKyFprMKhf6-85" value="30" style="text;html=1;strokeColor=none;fillColor=none;align=center;verticalAlign=middle;whiteSpace=wrap;rounded=0;" parent="1" vertex="1">
          <mxGeometry x="473.82" y="1389" width="82" height="30" as="geometry" />
        </mxCell>
        <mxCell id="_K62Qx7TpKKyFprMKhf6-86" value="4" style="text;html=1;strokeColor=none;fillColor=none;align=center;verticalAlign=middle;whiteSpace=wrap;rounded=0;" parent="1" vertex="1">
          <mxGeometry x="382.82" y="1336.12" width="73" height="30" as="geometry" />
        </mxCell>
        <mxCell id="_K62Qx7TpKKyFprMKhf6-87" value="11" style="text;html=1;strokeColor=none;fillColor=none;align=center;verticalAlign=middle;whiteSpace=wrap;rounded=0;" parent="1" vertex="1">
          <mxGeometry x="382.82" y="1363.5" width="73" height="30" as="geometry" />
        </mxCell>
        <mxCell id="_K62Qx7TpKKyFprMKhf6-88" value="25" style="text;html=1;strokeColor=none;fillColor=none;align=center;verticalAlign=middle;whiteSpace=wrap;rounded=0;" parent="1" vertex="1">
          <mxGeometry x="382.82" y="1389" width="73" height="30" as="geometry" />
        </mxCell>
        <mxCell id="_K62Qx7TpKKyFprMKhf6-89" value="Название" style="text;html=1;strokeColor=none;fillColor=none;align=center;verticalAlign=middle;whiteSpace=wrap;rounded=0;" parent="1" vertex="1">
          <mxGeometry x="281.32" y="1333.75" width="81.5" height="30" as="geometry" />
        </mxCell>
        <mxCell id="_K62Qx7TpKKyFprMKhf6-90" value="Название" style="text;html=1;strokeColor=none;fillColor=none;align=center;verticalAlign=middle;whiteSpace=wrap;rounded=0;" parent="1" vertex="1">
          <mxGeometry x="285.32" y="1360.38" width="77.5" height="30" as="geometry" />
        </mxCell>
        <mxCell id="_K62Qx7TpKKyFprMKhf6-91" value="Название" style="text;html=1;strokeColor=none;fillColor=none;align=center;verticalAlign=middle;whiteSpace=wrap;rounded=0;" parent="1" vertex="1">
          <mxGeometry x="285.32" y="1387.38" width="77.5" height="30" as="geometry" />
        </mxCell>
        <mxCell id="_K62Qx7TpKKyFprMKhf6-93" value="Балы" style="text;html=1;strokeColor=none;fillColor=none;align=center;verticalAlign=middle;whiteSpace=wrap;rounded=0;" parent="1" vertex="1">
          <mxGeometry x="552.82" y="1275.63" width="82" height="30" as="geometry" />
        </mxCell>
        <mxCell id="_K62Qx7TpKKyFprMKhf6-94" value="3" style="text;html=1;strokeColor=none;fillColor=none;align=center;verticalAlign=middle;whiteSpace=wrap;rounded=0;" parent="1" vertex="1">
          <mxGeometry x="552.82" y="1305.63" width="82" height="30" as="geometry" />
        </mxCell>
        <mxCell id="_K62Qx7TpKKyFprMKhf6-95" value="6" style="text;html=1;strokeColor=none;fillColor=none;align=center;verticalAlign=middle;whiteSpace=wrap;rounded=0;" parent="1" vertex="1">
          <mxGeometry x="552.82" y="1332.63" width="82" height="30" as="geometry" />
        </mxCell>
        <mxCell id="_K62Qx7TpKKyFprMKhf6-96" value="13" style="text;html=1;strokeColor=none;fillColor=none;align=center;verticalAlign=middle;whiteSpace=wrap;rounded=0;" parent="1" vertex="1">
          <mxGeometry x="552.82" y="1362.63" width="82" height="30" as="geometry" />
        </mxCell>
        <mxCell id="_K62Qx7TpKKyFprMKhf6-97" value="33" style="text;html=1;strokeColor=none;fillColor=none;align=center;verticalAlign=middle;whiteSpace=wrap;rounded=0;" parent="1" vertex="1">
          <mxGeometry x="552.82" y="1388.13" width="82" height="30" as="geometry" />
        </mxCell>
        <mxCell id="_K62Qx7TpKKyFprMKhf6-99" value="Рейтинг-контроль" style="text;html=1;strokeColor=none;fillColor=none;align=center;verticalAlign=middle;whiteSpace=wrap;rounded=0;" parent="1" vertex="1">
          <mxGeometry x="172" y="1355.88" width="84" height="36.12" as="geometry" />
        </mxCell>
        <mxCell id="_K62Qx7TpKKyFprMKhf6-100" value="Сданные экзамены" style="rounded=0;whiteSpace=wrap;html=1;" parent="1" vertex="1">
          <mxGeometry x="172.82" y="1308.5" width="86" height="39" as="geometry" />
        </mxCell>
        <mxCell id="_K62Qx7TpKKyFprMKhf6-101" value="" style="rounded=0;whiteSpace=wrap;html=1;" parent="1" vertex="1">
          <mxGeometry x="141.32" y="1498" width="519" height="290" as="geometry" />
        </mxCell>
        <mxCell id="_K62Qx7TpKKyFprMKhf6-102" value="" style="rounded=0;whiteSpace=wrap;html=1;fillColor=#f5f5f5;fontColor=#333333;strokeColor=#666666;" parent="1" vertex="1">
          <mxGeometry x="141.32" y="1499" width="519" height="58" as="geometry" />
        </mxCell>
        <mxCell id="_K62Qx7TpKKyFprMKhf6-103" value="Логин пользователя" style="rounded=0;whiteSpace=wrap;html=1;" parent="1" vertex="1">
          <mxGeometry x="520.32" y="1517" width="120" height="22" as="geometry" />
        </mxCell>
        <mxCell id="_K62Qx7TpKKyFprMKhf6-104" value="" style="rounded=0;whiteSpace=wrap;html=1;fillColor=#f5f5f5;fontColor=#333333;strokeColor=#666666;" parent="1" vertex="1">
          <mxGeometry x="161.32" y="1570" width="102" height="200" as="geometry" />
        </mxCell>
        <mxCell id="_K62Qx7TpKKyFprMKhf6-106" value="Логотип" style="ellipse;whiteSpace=wrap;html=1;" parent="1" vertex="1">
          <mxGeometry x="189.32" y="1501.5" width="53" height="50.5" as="geometry" />
        </mxCell>
        <mxCell id="_K62Qx7TpKKyFprMKhf6-107" value="Название" style="text;html=1;strokeColor=none;fillColor=none;align=center;verticalAlign=middle;whiteSpace=wrap;rounded=0;" parent="1" vertex="1">
          <mxGeometry x="281.32" y="1511.75" width="60" height="30" as="geometry" />
        </mxCell>
        <mxCell id="_K62Qx7TpKKyFprMKhf6-108" value="" style="shape=tee;whiteSpace=wrap;html=1;rotation=90;dx=36;dy=260;" parent="1" vertex="1">
          <mxGeometry x="337.5" y="1552" width="38.17" height="370" as="geometry" />
        </mxCell>
        <mxCell id="_K62Qx7TpKKyFprMKhf6-109" value="" style="rounded=0;whiteSpace=wrap;html=1;" parent="1" vertex="1">
          <mxGeometry x="270.82" y="1574.62" width="376" height="185" as="geometry" />
        </mxCell>
        <mxCell id="_K62Qx7TpKKyFprMKhf6-110" value="Предстоящие экзамены" style="rounded=0;whiteSpace=wrap;html=1;" parent="1" vertex="1">
          <mxGeometry x="171.82" y="1581" width="86" height="39" as="geometry" />
        </mxCell>
        <mxCell id="_K62Qx7TpKKyFprMKhf6-111" value="" style="rounded=0;whiteSpace=wrap;html=1;fillColor=#f5f5f5;fontColor=#333333;strokeColor=#666666;" parent="1" vertex="1">
          <mxGeometry x="279.32" y="1591" width="358.5" height="158" as="geometry" />
        </mxCell>
        <mxCell id="_K62Qx7TpKKyFprMKhf6-112" value="" style="rounded=0;whiteSpace=wrap;html=1;" parent="1" vertex="1">
          <mxGeometry x="282.82" y="1599" width="347" height="21" as="geometry" />
        </mxCell>
        <mxCell id="_K62Qx7TpKKyFprMKhf6-113" value="Дисциплина" style="text;html=1;strokeColor=none;fillColor=none;align=center;verticalAlign=middle;whiteSpace=wrap;rounded=0;" parent="1" vertex="1">
          <mxGeometry x="288.67" y="1594.5" width="89.5" height="30" as="geometry" />
        </mxCell>
        <mxCell id="_K62Qx7TpKKyFprMKhf6-114" value="Дата" style="text;html=1;strokeColor=none;fillColor=none;align=center;verticalAlign=middle;whiteSpace=wrap;rounded=0;" parent="1" vertex="1">
          <mxGeometry x="400.72" y="1593.13" width="91" height="30" as="geometry" />
        </mxCell>
        <mxCell id="_K62Qx7TpKKyFprMKhf6-115" value="Присутствие" style="text;html=1;strokeColor=none;fillColor=none;align=center;verticalAlign=middle;whiteSpace=wrap;rounded=0;" parent="1" vertex="1">
          <mxGeometry x="499" y="1595.62" width="106.18" height="30" as="geometry" />
        </mxCell>
        <mxCell id="_K62Qx7TpKKyFprMKhf6-116" value="" style="rounded=0;whiteSpace=wrap;html=1;fillColor=#f5f5f5;fontColor=#333333;strokeColor=#666666;" parent="1" vertex="1">
          <mxGeometry x="282.82" y="1628.5" width="346" height="21" as="geometry" />
        </mxCell>
        <mxCell id="_K62Qx7TpKKyFprMKhf6-117" value="Название" style="text;html=1;strokeColor=none;fillColor=none;align=center;verticalAlign=middle;whiteSpace=wrap;rounded=0;" parent="1" vertex="1">
          <mxGeometry x="281.32" y="1624" width="82.5" height="30" as="geometry" />
        </mxCell>
        <mxCell id="_K62Qx7TpKKyFprMKhf6-118" value="Дата" style="text;html=1;strokeColor=none;fillColor=none;align=center;verticalAlign=middle;whiteSpace=wrap;rounded=0;" parent="1" vertex="1">
          <mxGeometry x="409.71999999999997" y="1628.62" width="73" height="25.38" as="geometry" />
        </mxCell>
        <mxCell id="_K62Qx7TpKKyFprMKhf6-120" value="" style="rounded=0;whiteSpace=wrap;html=1;fillColor=#f5f5f5;fontColor=#333333;strokeColor=#666666;" parent="1" vertex="1">
          <mxGeometry x="282.82" y="1655.5" width="346" height="21" as="geometry" />
        </mxCell>
        <mxCell id="_K62Qx7TpKKyFprMKhf6-122" value="" style="rounded=0;whiteSpace=wrap;html=1;fillColor=#f5f5f5;fontColor=#333333;strokeColor=#666666;" parent="1" vertex="1">
          <mxGeometry x="284.82" y="1684" width="343" height="21" as="geometry" />
        </mxCell>
        <mxCell id="_K62Qx7TpKKyFprMKhf6-123" value="" style="rounded=0;whiteSpace=wrap;html=1;fillColor=#f5f5f5;fontColor=#333333;strokeColor=#666666;" parent="1" vertex="1">
          <mxGeometry x="283.82" y="1711" width="343" height="21" as="geometry" />
        </mxCell>
        <mxCell id="_K62Qx7TpKKyFprMKhf6-126" value="Дата" style="text;html=1;strokeColor=none;fillColor=none;align=center;verticalAlign=middle;whiteSpace=wrap;rounded=0;" parent="1" vertex="1">
          <mxGeometry x="408.03999999999996" y="1654.37" width="73" height="30" as="geometry" />
        </mxCell>
        <mxCell id="_K62Qx7TpKKyFprMKhf6-127" value="Дата" style="text;html=1;strokeColor=none;fillColor=none;align=center;verticalAlign=middle;whiteSpace=wrap;rounded=0;" parent="1" vertex="1">
          <mxGeometry x="408.03999999999996" y="1681.75" width="73" height="30" as="geometry" />
        </mxCell>
        <mxCell id="_K62Qx7TpKKyFprMKhf6-128" value="Дата" style="text;html=1;strokeColor=none;fillColor=none;align=center;verticalAlign=middle;whiteSpace=wrap;rounded=0;" parent="1" vertex="1">
          <mxGeometry x="408.03999999999996" y="1707.25" width="73" height="30" as="geometry" />
        </mxCell>
        <mxCell id="_K62Qx7TpKKyFprMKhf6-129" value="Название" style="text;html=1;strokeColor=none;fillColor=none;align=center;verticalAlign=middle;whiteSpace=wrap;rounded=0;" parent="1" vertex="1">
          <mxGeometry x="281.32" y="1652.87" width="81.5" height="30" as="geometry" />
        </mxCell>
        <mxCell id="_K62Qx7TpKKyFprMKhf6-130" value="Название" style="text;html=1;strokeColor=none;fillColor=none;align=center;verticalAlign=middle;whiteSpace=wrap;rounded=0;" parent="1" vertex="1">
          <mxGeometry x="285.32" y="1679.5" width="77.5" height="30" as="geometry" />
        </mxCell>
        <mxCell id="_K62Qx7TpKKyFprMKhf6-131" value="Название" style="text;html=1;strokeColor=none;fillColor=none;align=center;verticalAlign=middle;whiteSpace=wrap;rounded=0;" parent="1" vertex="1">
          <mxGeometry x="285.32" y="1706.5" width="77.5" height="30" as="geometry" />
        </mxCell>
        <mxCell id="_K62Qx7TpKKyFprMKhf6-133" value="Не был" style="text;html=1;strokeColor=none;fillColor=none;align=center;verticalAlign=middle;whiteSpace=wrap;rounded=0;" parent="1" vertex="1">
          <mxGeometry x="515" y="1623.13" width="82" height="30" as="geometry" />
        </mxCell>
        <mxCell id="_K62Qx7TpKKyFprMKhf6-134" value="Не был" style="text;html=1;strokeColor=none;fillColor=none;align=center;verticalAlign=middle;whiteSpace=wrap;rounded=0;" parent="1" vertex="1">
          <mxGeometry x="515" y="1650.13" width="82" height="30" as="geometry" />
        </mxCell>
        <mxCell id="_K62Qx7TpKKyFprMKhf6-135" value="-" style="text;html=1;strokeColor=none;fillColor=none;align=center;verticalAlign=middle;whiteSpace=wrap;rounded=0;" parent="1" vertex="1">
          <mxGeometry x="515" y="1680.13" width="82" height="30" as="geometry" />
        </mxCell>
        <mxCell id="_K62Qx7TpKKyFprMKhf6-136" value="Не был" style="text;html=1;strokeColor=none;fillColor=none;align=center;verticalAlign=middle;whiteSpace=wrap;rounded=0;" parent="1" vertex="1">
          <mxGeometry x="515" y="1705.63" width="82" height="30" as="geometry" />
        </mxCell>
        <mxCell id="_K62Qx7TpKKyFprMKhf6-138" value="Сданные экзамены" style="rounded=0;whiteSpace=wrap;html=1;" parent="1" vertex="1">
          <mxGeometry x="172.82" y="1627.62" width="86" height="39" as="geometry" />
        </mxCell>
        <mxCell id="_K62Qx7TpKKyFprMKhf6-139" value="Рейтинг-контроль" style="rounded=0;whiteSpace=wrap;html=1;" parent="1" vertex="1">
          <mxGeometry x="173.5" y="1673.62" width="86" height="39" as="geometry" />
        </mxCell>
        <mxCell id="_K62Qx7TpKKyFprMKhf6-140" value="Посещаемость" style="text;html=1;strokeColor=none;fillColor=none;align=center;verticalAlign=middle;whiteSpace=wrap;rounded=0;" parent="1" vertex="1">
          <mxGeometry x="176" y="1721" width="83" height="32" as="geometry" />
        </mxCell>
        <mxCell id="7-pxe1BSp_YXggkC3oJ0-1" value="" style="rounded=0;whiteSpace=wrap;html=1;" parent="1" vertex="1">
          <mxGeometry x="736.5" y="528" width="519" height="290" as="geometry" />
        </mxCell>
        <mxCell id="7-pxe1BSp_YXggkC3oJ0-2" value="" style="rounded=0;whiteSpace=wrap;html=1;fillColor=#f5f5f5;fontColor=#333333;strokeColor=#666666;" parent="1" vertex="1">
          <mxGeometry x="736.5" y="529" width="519" height="58" as="geometry" />
        </mxCell>
        <mxCell id="7-pxe1BSp_YXggkC3oJ0-3" value="Логин пользователя" style="rounded=0;whiteSpace=wrap;html=1;" parent="1" vertex="1">
          <mxGeometry x="1115.5" y="547" width="120" height="22" as="geometry" />
        </mxCell>
        <mxCell id="7-pxe1BSp_YXggkC3oJ0-4" value="" style="rounded=0;whiteSpace=wrap;html=1;fillColor=#f5f5f5;fontColor=#333333;strokeColor=#666666;" parent="1" vertex="1">
          <mxGeometry x="756.5" y="600" width="102" height="200" as="geometry" />
        </mxCell>
        <mxCell id="7-pxe1BSp_YXggkC3oJ0-6" value="Проставить оценки" style="rounded=0;whiteSpace=wrap;html=1;" parent="1" vertex="1">
          <mxGeometry x="764.5" y="654" width="86" height="39" as="geometry" />
        </mxCell>
        <mxCell id="7-pxe1BSp_YXggkC3oJ0-7" value="Проставить посещаемость" style="rounded=0;whiteSpace=wrap;html=1;" parent="1" vertex="1">
          <mxGeometry x="764.5" y="702" width="86" height="39" as="geometry" />
        </mxCell>
        <mxCell id="7-pxe1BSp_YXggkC3oJ0-8" value="Просмотр групп" style="rounded=0;whiteSpace=wrap;html=1;" parent="1" vertex="1">
          <mxGeometry x="764.5" y="749" width="86" height="39" as="geometry" />
        </mxCell>
        <mxCell id="7-pxe1BSp_YXggkC3oJ0-10" value="Логотип" style="ellipse;whiteSpace=wrap;html=1;" parent="1" vertex="1">
          <mxGeometry x="784.5" y="531.5" width="53" height="50.5" as="geometry" />
        </mxCell>
        <mxCell id="7-pxe1BSp_YXggkC3oJ0-11" value="Название" style="text;html=1;strokeColor=none;fillColor=none;align=center;verticalAlign=middle;whiteSpace=wrap;rounded=0;" parent="1" vertex="1">
          <mxGeometry x="876.5" y="541.75" width="60" height="30" as="geometry" />
        </mxCell>
        <mxCell id="7-pxe1BSp_YXggkC3oJ0-44" value="" style="shape=corner;whiteSpace=wrap;html=1;rotation=90;dx=46;dy=385;" parent="1" vertex="1">
          <mxGeometry x="907.23" y="460.23" width="195.82" height="485.29" as="geometry" />
        </mxCell>
        <mxCell id="7-pxe1BSp_YXggkC3oJ0-45" value="Проставить оценки экзаменов" style="text;html=1;strokeColor=none;fillColor=none;align=center;verticalAlign=middle;whiteSpace=wrap;rounded=0;" parent="1" vertex="1">
          <mxGeometry x="760.5" y="605" width="94.5" height="45" as="geometry" />
        </mxCell>
        <mxCell id="7-pxe1BSp_YXggkC3oJ0-18" value="" style="rounded=0;whiteSpace=wrap;html=1;fillColor=#f5f5f5;fontColor=#333333;strokeColor=#666666;" parent="1" vertex="1">
          <mxGeometry x="874.5" y="634" width="358.5" height="158" as="geometry" />
        </mxCell>
        <mxCell id="7-pxe1BSp_YXggkC3oJ0-19" value="" style="rounded=0;whiteSpace=wrap;html=1;" parent="1" vertex="1">
          <mxGeometry x="878" y="642" width="347" height="21" as="geometry" />
        </mxCell>
        <mxCell id="7-pxe1BSp_YXggkC3oJ0-20" value="Ученик" style="text;html=1;strokeColor=none;fillColor=none;align=center;verticalAlign=middle;whiteSpace=wrap;rounded=0;" parent="1" vertex="1">
          <mxGeometry x="883.85" y="637.5" width="89.5" height="30" as="geometry" />
        </mxCell>
        <mxCell id="7-pxe1BSp_YXggkC3oJ0-21" value="Тип контроля" style="text;html=1;strokeColor=none;fillColor=none;align=center;verticalAlign=middle;whiteSpace=wrap;rounded=0;" parent="1" vertex="1">
          <mxGeometry x="969" y="640.62" width="91" height="30" as="geometry" />
        </mxCell>
        <mxCell id="7-pxe1BSp_YXggkC3oJ0-22" value="Дата/семестр" style="text;html=1;strokeColor=none;fillColor=none;align=center;verticalAlign=middle;whiteSpace=wrap;rounded=0;" parent="1" vertex="1">
          <mxGeometry x="1069" y="638.62" width="82" height="30" as="geometry" />
        </mxCell>
        <mxCell id="7-pxe1BSp_YXggkC3oJ0-23" value="" style="rounded=0;whiteSpace=wrap;html=1;fillColor=#f5f5f5;fontColor=#333333;strokeColor=#666666;" parent="1" vertex="1">
          <mxGeometry x="878" y="671.5" width="346" height="21" as="geometry" />
        </mxCell>
        <mxCell id="7-pxe1BSp_YXggkC3oJ0-24" value="ФИО" style="text;html=1;strokeColor=none;fillColor=none;align=center;verticalAlign=middle;whiteSpace=wrap;rounded=0;" parent="1" vertex="1">
          <mxGeometry x="876.5" y="667" width="82.5" height="30" as="geometry" />
        </mxCell>
        <mxCell id="7-pxe1BSp_YXggkC3oJ0-25" value="Тип" style="text;html=1;strokeColor=none;fillColor=none;align=center;verticalAlign=middle;whiteSpace=wrap;rounded=0;" parent="1" vertex="1">
          <mxGeometry x="974.5" y="671.62" width="73" height="30" as="geometry" />
        </mxCell>
        <mxCell id="7-pxe1BSp_YXggkC3oJ0-26" value="Дата/семестр" style="text;html=1;strokeColor=none;fillColor=none;align=center;verticalAlign=middle;whiteSpace=wrap;rounded=0;" parent="1" vertex="1">
          <mxGeometry x="1069" y="668.62" width="82" height="30" as="geometry" />
        </mxCell>
        <mxCell id="7-pxe1BSp_YXggkC3oJ0-27" value="" style="rounded=0;whiteSpace=wrap;html=1;fillColor=#f5f5f5;fontColor=#333333;strokeColor=#666666;" parent="1" vertex="1">
          <mxGeometry x="878" y="698.5000000000001" width="346" height="21" as="geometry" />
        </mxCell>
        <mxCell id="7-pxe1BSp_YXggkC3oJ0-28" value="Дата/семестр" style="text;html=1;strokeColor=none;fillColor=none;align=center;verticalAlign=middle;whiteSpace=wrap;rounded=0;" parent="1" vertex="1">
          <mxGeometry x="1069" y="695.62" width="82" height="30" as="geometry" />
        </mxCell>
        <mxCell id="7-pxe1BSp_YXggkC3oJ0-29" value="" style="rounded=0;whiteSpace=wrap;html=1;fillColor=#f5f5f5;fontColor=#333333;strokeColor=#666666;" parent="1" vertex="1">
          <mxGeometry x="880" y="727.0000000000001" width="343" height="21" as="geometry" />
        </mxCell>
        <mxCell id="7-pxe1BSp_YXggkC3oJ0-30" value="" style="rounded=0;whiteSpace=wrap;html=1;fillColor=#f5f5f5;fontColor=#333333;strokeColor=#666666;" parent="1" vertex="1">
          <mxGeometry x="879" y="754.0000000000001" width="343" height="21" as="geometry" />
        </mxCell>
        <mxCell id="7-pxe1BSp_YXggkC3oJ0-31" value="Дата/семестр" style="text;html=1;strokeColor=none;fillColor=none;align=center;verticalAlign=middle;whiteSpace=wrap;rounded=0;" parent="1" vertex="1">
          <mxGeometry x="1069" y="725.62" width="82" height="30" as="geometry" />
        </mxCell>
        <mxCell id="7-pxe1BSp_YXggkC3oJ0-32" value="Дата/семестр" style="text;html=1;strokeColor=none;fillColor=none;align=center;verticalAlign=middle;whiteSpace=wrap;rounded=0;" parent="1" vertex="1">
          <mxGeometry x="1069" y="751.12" width="82" height="30" as="geometry" />
        </mxCell>
        <mxCell id="7-pxe1BSp_YXggkC3oJ0-33" value="Тип" style="text;html=1;strokeColor=none;fillColor=none;align=center;verticalAlign=middle;whiteSpace=wrap;rounded=0;" parent="1" vertex="1">
          <mxGeometry x="978" y="698.2399999999999" width="73" height="30" as="geometry" />
        </mxCell>
        <mxCell id="7-pxe1BSp_YXggkC3oJ0-34" value="Тип" style="text;html=1;strokeColor=none;fillColor=none;align=center;verticalAlign=middle;whiteSpace=wrap;rounded=0;" parent="1" vertex="1">
          <mxGeometry x="978" y="725.62" width="73" height="30" as="geometry" />
        </mxCell>
        <mxCell id="7-pxe1BSp_YXggkC3oJ0-35" value="Тип" style="text;html=1;strokeColor=none;fillColor=none;align=center;verticalAlign=middle;whiteSpace=wrap;rounded=0;" parent="1" vertex="1">
          <mxGeometry x="978" y="751.12" width="73" height="30" as="geometry" />
        </mxCell>
        <mxCell id="7-pxe1BSp_YXggkC3oJ0-36" value="ФИО" style="text;html=1;strokeColor=none;fillColor=none;align=center;verticalAlign=middle;whiteSpace=wrap;rounded=0;" parent="1" vertex="1">
          <mxGeometry x="876.5" y="695.87" width="81.5" height="30" as="geometry" />
        </mxCell>
        <mxCell id="7-pxe1BSp_YXggkC3oJ0-37" value="ФИО" style="text;html=1;strokeColor=none;fillColor=none;align=center;verticalAlign=middle;whiteSpace=wrap;rounded=0;" parent="1" vertex="1">
          <mxGeometry x="880.5" y="722.5000000000001" width="77.5" height="30" as="geometry" />
        </mxCell>
        <mxCell id="7-pxe1BSp_YXggkC3oJ0-38" value="ФИО" style="text;html=1;strokeColor=none;fillColor=none;align=center;verticalAlign=middle;whiteSpace=wrap;rounded=0;" parent="1" vertex="1">
          <mxGeometry x="880.5" y="749.5000000000001" width="77.5" height="30" as="geometry" />
        </mxCell>
        <mxCell id="7-pxe1BSp_YXggkC3oJ0-39" value="Оценка" style="text;html=1;strokeColor=none;fillColor=none;align=center;verticalAlign=middle;whiteSpace=wrap;rounded=0;" parent="1" vertex="1">
          <mxGeometry x="1148" y="637.75" width="82" height="30" as="geometry" />
        </mxCell>
        <mxCell id="7-pxe1BSp_YXggkC3oJ0-40" value="-" style="text;html=1;strokeColor=none;fillColor=none;align=center;verticalAlign=middle;whiteSpace=wrap;rounded=0;" parent="1" vertex="1">
          <mxGeometry x="1148" y="667.75" width="82" height="30" as="geometry" />
        </mxCell>
        <mxCell id="7-pxe1BSp_YXggkC3oJ0-41" value="Хор" style="text;html=1;strokeColor=none;fillColor=none;align=center;verticalAlign=middle;whiteSpace=wrap;rounded=0;" parent="1" vertex="1">
          <mxGeometry x="1148" y="694.75" width="82" height="30" as="geometry" />
        </mxCell>
        <mxCell id="7-pxe1BSp_YXggkC3oJ0-42" value="-" style="text;html=1;strokeColor=none;fillColor=none;align=center;verticalAlign=middle;whiteSpace=wrap;rounded=0;" parent="1" vertex="1">
          <mxGeometry x="1148" y="724.7500000000001" width="82" height="30" as="geometry" />
        </mxCell>
        <mxCell id="7-pxe1BSp_YXggkC3oJ0-43" value="Неуд" style="text;html=1;strokeColor=none;fillColor=none;align=center;verticalAlign=middle;whiteSpace=wrap;rounded=0;" parent="1" vertex="1">
          <mxGeometry x="1148" y="750.2500000000001" width="82" height="30" as="geometry" />
        </mxCell>
        <mxCell id="7-pxe1BSp_YXggkC3oJ0-83" value="" style="rounded=0;whiteSpace=wrap;html=1;" parent="1" vertex="1">
          <mxGeometry x="735" y="855.77" width="519" height="290" as="geometry" />
        </mxCell>
        <mxCell id="7-pxe1BSp_YXggkC3oJ0-84" value="" style="rounded=0;whiteSpace=wrap;html=1;fillColor=#f5f5f5;fontColor=#333333;strokeColor=#666666;" parent="1" vertex="1">
          <mxGeometry x="735" y="856.77" width="519" height="58" as="geometry" />
        </mxCell>
        <mxCell id="7-pxe1BSp_YXggkC3oJ0-85" value="Логин пользователя" style="rounded=0;whiteSpace=wrap;html=1;" parent="1" vertex="1">
          <mxGeometry x="1114" y="874.77" width="120" height="22" as="geometry" />
        </mxCell>
        <mxCell id="7-pxe1BSp_YXggkC3oJ0-86" value="" style="rounded=0;whiteSpace=wrap;html=1;fillColor=#f5f5f5;fontColor=#333333;strokeColor=#666666;" parent="1" vertex="1">
          <mxGeometry x="755" y="927.77" width="102" height="200" as="geometry" />
        </mxCell>
        <mxCell id="7-pxe1BSp_YXggkC3oJ0-88" value="Проставить посещаемость" style="rounded=0;whiteSpace=wrap;html=1;" parent="1" vertex="1">
          <mxGeometry x="763" y="1029.77" width="86" height="39" as="geometry" />
        </mxCell>
        <mxCell id="7-pxe1BSp_YXggkC3oJ0-89" value="Просмотр групп" style="rounded=0;whiteSpace=wrap;html=1;" parent="1" vertex="1">
          <mxGeometry x="763" y="1076.77" width="86" height="39" as="geometry" />
        </mxCell>
        <mxCell id="7-pxe1BSp_YXggkC3oJ0-90" value="Логотип" style="ellipse;whiteSpace=wrap;html=1;" parent="1" vertex="1">
          <mxGeometry x="783" y="859.27" width="53" height="50.5" as="geometry" />
        </mxCell>
        <mxCell id="7-pxe1BSp_YXggkC3oJ0-91" value="Название" style="text;html=1;strokeColor=none;fillColor=none;align=center;verticalAlign=middle;whiteSpace=wrap;rounded=0;" parent="1" vertex="1">
          <mxGeometry x="875" y="869.52" width="60" height="30" as="geometry" />
        </mxCell>
        <mxCell id="7-pxe1BSp_YXggkC3oJ0-120" value="Проставить оценки экзаменов" style="rounded=0;whiteSpace=wrap;html=1;" parent="1" vertex="1">
          <mxGeometry x="764" y="935" width="86" height="40" as="geometry" />
        </mxCell>
        <mxCell id="7-pxe1BSp_YXggkC3oJ0-121" value="" style="shape=tee;whiteSpace=wrap;html=1;rotation=90;dx=36;dy=260;" parent="1" vertex="1">
          <mxGeometry x="923.5" y="819.25" width="46.04" height="363.49" as="geometry" />
        </mxCell>
        <mxCell id="7-pxe1BSp_YXggkC3oJ0-122" value="" style="rounded=0;whiteSpace=wrap;html=1;" parent="1" vertex="1">
          <mxGeometry x="861" y="931" width="374.5" height="187" as="geometry" />
        </mxCell>
        <mxCell id="7-pxe1BSp_YXggkC3oJ0-123" value="" style="rounded=0;whiteSpace=wrap;html=1;fillColor=#f5f5f5;fontColor=#333333;strokeColor=#666666;" parent="1" vertex="1">
          <mxGeometry x="869" y="953.2700000000001" width="358.5" height="158" as="geometry" />
        </mxCell>
        <mxCell id="7-pxe1BSp_YXggkC3oJ0-124" value="" style="rounded=0;whiteSpace=wrap;html=1;" parent="1" vertex="1">
          <mxGeometry x="872.5" y="961.2700000000001" width="347" height="21" as="geometry" />
        </mxCell>
        <mxCell id="7-pxe1BSp_YXggkC3oJ0-125" value="Ученик" style="text;html=1;strokeColor=none;fillColor=none;align=center;verticalAlign=middle;whiteSpace=wrap;rounded=0;" parent="1" vertex="1">
          <mxGeometry x="878.3499999999999" y="956.7700000000001" width="89.5" height="30" as="geometry" />
        </mxCell>
        <mxCell id="7-pxe1BSp_YXggkC3oJ0-126" value="Балы" style="text;html=1;strokeColor=none;fillColor=none;align=center;verticalAlign=middle;whiteSpace=wrap;rounded=0;" parent="1" vertex="1">
          <mxGeometry x="965.18" y="956.2700000000001" width="91" height="30" as="geometry" />
        </mxCell>
        <mxCell id="7-pxe1BSp_YXggkC3oJ0-127" value="Балы" style="text;html=1;strokeColor=none;fillColor=none;align=center;verticalAlign=middle;whiteSpace=wrap;rounded=0;" parent="1" vertex="1">
          <mxGeometry x="1063.5" y="957.89" width="82" height="30" as="geometry" />
        </mxCell>
        <mxCell id="7-pxe1BSp_YXggkC3oJ0-128" value="" style="rounded=0;whiteSpace=wrap;html=1;fillColor=#f5f5f5;fontColor=#333333;strokeColor=#666666;" parent="1" vertex="1">
          <mxGeometry x="872.5" y="990.7700000000001" width="346" height="21" as="geometry" />
        </mxCell>
        <mxCell id="7-pxe1BSp_YXggkC3oJ0-129" value="ФИО" style="text;html=1;strokeColor=none;fillColor=none;align=center;verticalAlign=middle;whiteSpace=wrap;rounded=0;" parent="1" vertex="1">
          <mxGeometry x="871" y="986.2700000000001" width="82.5" height="30" as="geometry" />
        </mxCell>
        <mxCell id="7-pxe1BSp_YXggkC3oJ0-130" value="-" style="text;html=1;strokeColor=none;fillColor=none;align=center;verticalAlign=middle;whiteSpace=wrap;rounded=0;" parent="1" vertex="1">
          <mxGeometry x="969" y="990.89" width="73" height="30" as="geometry" />
        </mxCell>
        <mxCell id="7-pxe1BSp_YXggkC3oJ0-131" value="2" style="text;html=1;strokeColor=none;fillColor=none;align=center;verticalAlign=middle;whiteSpace=wrap;rounded=0;" parent="1" vertex="1">
          <mxGeometry x="1063.5" y="987.89" width="82" height="30" as="geometry" />
        </mxCell>
        <mxCell id="7-pxe1BSp_YXggkC3oJ0-132" value="" style="rounded=0;whiteSpace=wrap;html=1;fillColor=#f5f5f5;fontColor=#333333;strokeColor=#666666;" parent="1" vertex="1">
          <mxGeometry x="872.5" y="1017.7700000000001" width="346" height="21" as="geometry" />
        </mxCell>
        <mxCell id="7-pxe1BSp_YXggkC3oJ0-133" value="-" style="text;html=1;strokeColor=none;fillColor=none;align=center;verticalAlign=middle;whiteSpace=wrap;rounded=0;" parent="1" vertex="1">
          <mxGeometry x="1063.5" y="1014.89" width="82" height="30" as="geometry" />
        </mxCell>
        <mxCell id="7-pxe1BSp_YXggkC3oJ0-134" value="" style="rounded=0;whiteSpace=wrap;html=1;fillColor=#f5f5f5;fontColor=#333333;strokeColor=#666666;" parent="1" vertex="1">
          <mxGeometry x="874.5" y="1046.2700000000002" width="343" height="21" as="geometry" />
        </mxCell>
        <mxCell id="7-pxe1BSp_YXggkC3oJ0-135" value="" style="rounded=0;whiteSpace=wrap;html=1;fillColor=#f5f5f5;fontColor=#333333;strokeColor=#666666;" parent="1" vertex="1">
          <mxGeometry x="873.5" y="1073.2700000000002" width="343" height="21" as="geometry" />
        </mxCell>
        <mxCell id="7-pxe1BSp_YXggkC3oJ0-136" value="12" style="text;html=1;strokeColor=none;fillColor=none;align=center;verticalAlign=middle;whiteSpace=wrap;rounded=0;" parent="1" vertex="1">
          <mxGeometry x="1063.5" y="1044.89" width="82" height="30" as="geometry" />
        </mxCell>
        <mxCell id="7-pxe1BSp_YXggkC3oJ0-137" value="-" style="text;html=1;strokeColor=none;fillColor=none;align=center;verticalAlign=middle;whiteSpace=wrap;rounded=0;" parent="1" vertex="1">
          <mxGeometry x="1063.5" y="1070.39" width="82" height="30" as="geometry" />
        </mxCell>
        <mxCell id="7-pxe1BSp_YXggkC3oJ0-138" value="4" style="text;html=1;strokeColor=none;fillColor=none;align=center;verticalAlign=middle;whiteSpace=wrap;rounded=0;" parent="1" vertex="1">
          <mxGeometry x="972.5" y="1017.5099999999999" width="73" height="30" as="geometry" />
        </mxCell>
        <mxCell id="7-pxe1BSp_YXggkC3oJ0-139" value="11" style="text;html=1;strokeColor=none;fillColor=none;align=center;verticalAlign=middle;whiteSpace=wrap;rounded=0;" parent="1" vertex="1">
          <mxGeometry x="972.5" y="1044.89" width="73" height="30" as="geometry" />
        </mxCell>
        <mxCell id="7-pxe1BSp_YXggkC3oJ0-140" value="25" style="text;html=1;strokeColor=none;fillColor=none;align=center;verticalAlign=middle;whiteSpace=wrap;rounded=0;" parent="1" vertex="1">
          <mxGeometry x="972.5" y="1070.39" width="73" height="30" as="geometry" />
        </mxCell>
        <mxCell id="7-pxe1BSp_YXggkC3oJ0-141" value="ФИО" style="text;html=1;strokeColor=none;fillColor=none;align=center;verticalAlign=middle;whiteSpace=wrap;rounded=0;" parent="1" vertex="1">
          <mxGeometry x="871" y="1015.14" width="81.5" height="30" as="geometry" />
        </mxCell>
        <mxCell id="7-pxe1BSp_YXggkC3oJ0-142" value="ФИО" style="text;html=1;strokeColor=none;fillColor=none;align=center;verticalAlign=middle;whiteSpace=wrap;rounded=0;" parent="1" vertex="1">
          <mxGeometry x="875" y="1041.7700000000002" width="77.5" height="30" as="geometry" />
        </mxCell>
        <mxCell id="7-pxe1BSp_YXggkC3oJ0-143" value="ФИО" style="text;html=1;strokeColor=none;fillColor=none;align=center;verticalAlign=middle;whiteSpace=wrap;rounded=0;" parent="1" vertex="1">
          <mxGeometry x="875" y="1068.7700000000002" width="77.5" height="30" as="geometry" />
        </mxCell>
        <mxCell id="7-pxe1BSp_YXggkC3oJ0-144" value="Балы" style="text;html=1;strokeColor=none;fillColor=none;align=center;verticalAlign=middle;whiteSpace=wrap;rounded=0;" parent="1" vertex="1">
          <mxGeometry x="1142.5" y="957.0200000000001" width="82" height="30" as="geometry" />
        </mxCell>
        <mxCell id="7-pxe1BSp_YXggkC3oJ0-145" value="3" style="text;html=1;strokeColor=none;fillColor=none;align=center;verticalAlign=middle;whiteSpace=wrap;rounded=0;" parent="1" vertex="1">
          <mxGeometry x="1142.5" y="987.0200000000001" width="82" height="30" as="geometry" />
        </mxCell>
        <mxCell id="7-pxe1BSp_YXggkC3oJ0-146" value="6" style="text;html=1;strokeColor=none;fillColor=none;align=center;verticalAlign=middle;whiteSpace=wrap;rounded=0;" parent="1" vertex="1">
          <mxGeometry x="1142.5" y="1014.0200000000001" width="82" height="30" as="geometry" />
        </mxCell>
        <mxCell id="7-pxe1BSp_YXggkC3oJ0-147" value="-" style="text;html=1;strokeColor=none;fillColor=none;align=center;verticalAlign=middle;whiteSpace=wrap;rounded=0;" parent="1" vertex="1">
          <mxGeometry x="1142.5" y="1044.0200000000002" width="82" height="30" as="geometry" />
        </mxCell>
        <mxCell id="7-pxe1BSp_YXggkC3oJ0-148" value="33" style="text;html=1;strokeColor=none;fillColor=none;align=center;verticalAlign=middle;whiteSpace=wrap;rounded=0;" parent="1" vertex="1">
          <mxGeometry x="1142.5" y="1069.5200000000002" width="82" height="30" as="geometry" />
        </mxCell>
        <mxCell id="7-pxe1BSp_YXggkC3oJ0-150" value="Проставить оценки" style="text;html=1;strokeColor=none;fillColor=none;align=center;verticalAlign=middle;whiteSpace=wrap;rounded=0;" parent="1" vertex="1">
          <mxGeometry x="765" y="984" width="92" height="36" as="geometry" />
        </mxCell>
        <mxCell id="7-pxe1BSp_YXggkC3oJ0-189" value="" style="rounded=0;whiteSpace=wrap;html=1;" parent="1" vertex="1">
          <mxGeometry x="735" y="1178.6599999999999" width="519" height="290" as="geometry" />
        </mxCell>
        <mxCell id="7-pxe1BSp_YXggkC3oJ0-190" value="" style="rounded=0;whiteSpace=wrap;html=1;fillColor=#f5f5f5;fontColor=#333333;strokeColor=#666666;" parent="1" vertex="1">
          <mxGeometry x="735" y="1179.6599999999999" width="519" height="58" as="geometry" />
        </mxCell>
        <mxCell id="7-pxe1BSp_YXggkC3oJ0-191" value="Логин пользователя" style="rounded=0;whiteSpace=wrap;html=1;" parent="1" vertex="1">
          <mxGeometry x="1114" y="1197.6599999999999" width="120" height="22" as="geometry" />
        </mxCell>
        <mxCell id="7-pxe1BSp_YXggkC3oJ0-192" value="" style="rounded=0;whiteSpace=wrap;html=1;fillColor=#f5f5f5;fontColor=#333333;strokeColor=#666666;" parent="1" vertex="1">
          <mxGeometry x="755" y="1250.6599999999999" width="102" height="200" as="geometry" />
        </mxCell>
        <mxCell id="7-pxe1BSp_YXggkC3oJ0-194" value="Просмотр групп" style="rounded=0;whiteSpace=wrap;html=1;" parent="1" vertex="1">
          <mxGeometry x="763" y="1399.6599999999999" width="86" height="39" as="geometry" />
        </mxCell>
        <mxCell id="7-pxe1BSp_YXggkC3oJ0-195" value="Логотип" style="ellipse;whiteSpace=wrap;html=1;" parent="1" vertex="1">
          <mxGeometry x="783" y="1182.1599999999999" width="53" height="50.5" as="geometry" />
        </mxCell>
        <mxCell id="7-pxe1BSp_YXggkC3oJ0-196" value="Название" style="text;html=1;strokeColor=none;fillColor=none;align=center;verticalAlign=middle;whiteSpace=wrap;rounded=0;" parent="1" vertex="1">
          <mxGeometry x="875" y="1192.4099999999999" width="60" height="30" as="geometry" />
        </mxCell>
        <mxCell id="7-pxe1BSp_YXggkC3oJ0-197" value="Проставить оценки экзаменов" style="rounded=0;whiteSpace=wrap;html=1;" parent="1" vertex="1">
          <mxGeometry x="764" y="1257.8899999999999" width="86" height="40" as="geometry" />
        </mxCell>
        <mxCell id="7-pxe1BSp_YXggkC3oJ0-198" value="" style="shape=tee;whiteSpace=wrap;html=1;rotation=90;dx=36;dy=260;" parent="1" vertex="1">
          <mxGeometry x="921.81" y="1188.5099999999998" width="46.04" height="363.49" as="geometry" />
        </mxCell>
        <mxCell id="7-pxe1BSp_YXggkC3oJ0-199" value="" style="rounded=0;whiteSpace=wrap;html=1;" parent="1" vertex="1">
          <mxGeometry x="861" y="1253.89" width="374.5" height="194.11" as="geometry" />
        </mxCell>
        <mxCell id="7-pxe1BSp_YXggkC3oJ0-228" value="Проставить оценки" style="rounded=0;whiteSpace=wrap;html=1;" parent="1" vertex="1">
          <mxGeometry x="763.85" y="1304.17" width="85.15" height="38.97" as="geometry" />
        </mxCell>
        <mxCell id="7-pxe1BSp_YXggkC3oJ0-229" value="Проставить посещаемость" style="text;html=1;strokeColor=none;fillColor=none;align=center;verticalAlign=middle;whiteSpace=wrap;rounded=0;" parent="1" vertex="1">
          <mxGeometry x="770" y="1355" width="84" height="30" as="geometry" />
        </mxCell>
        <mxCell id="7-pxe1BSp_YXggkC3oJ0-231" value="" style="rounded=0;whiteSpace=wrap;html=1;fillColor=#f5f5f5;fontColor=#333333;strokeColor=#666666;" parent="1" vertex="1">
          <mxGeometry x="865.75" y="1284.03" width="358.5" height="158" as="geometry" />
        </mxCell>
        <mxCell id="7-pxe1BSp_YXggkC3oJ0-232" value="" style="rounded=0;whiteSpace=wrap;html=1;" parent="1" vertex="1">
          <mxGeometry x="869.25" y="1292.03" width="347" height="21" as="geometry" />
        </mxCell>
        <mxCell id="7-pxe1BSp_YXggkC3oJ0-233" value="Ученик" style="text;html=1;strokeColor=none;fillColor=none;align=center;verticalAlign=middle;whiteSpace=wrap;rounded=0;" parent="1" vertex="1">
          <mxGeometry x="875.1" y="1287.53" width="89.5" height="30" as="geometry" />
        </mxCell>
        <mxCell id="7-pxe1BSp_YXggkC3oJ0-234" value="Дата" style="text;html=1;strokeColor=none;fillColor=none;align=center;verticalAlign=middle;whiteSpace=wrap;rounded=0;" parent="1" vertex="1">
          <mxGeometry x="987.1500000000001" y="1286.16" width="91" height="30" as="geometry" />
        </mxCell>
        <mxCell id="7-pxe1BSp_YXggkC3oJ0-235" value="Дата" style="text;html=1;strokeColor=none;fillColor=none;align=center;verticalAlign=middle;whiteSpace=wrap;rounded=0;" parent="1" vertex="1">
          <mxGeometry x="1085.43" y="1288.6499999999999" width="106.18" height="30" as="geometry" />
        </mxCell>
        <mxCell id="7-pxe1BSp_YXggkC3oJ0-236" value="" style="rounded=0;whiteSpace=wrap;html=1;fillColor=#f5f5f5;fontColor=#333333;strokeColor=#666666;" parent="1" vertex="1">
          <mxGeometry x="869.25" y="1321.53" width="346" height="21" as="geometry" />
        </mxCell>
        <mxCell id="7-pxe1BSp_YXggkC3oJ0-237" value="ФИО" style="text;html=1;strokeColor=none;fillColor=none;align=center;verticalAlign=middle;whiteSpace=wrap;rounded=0;" parent="1" vertex="1">
          <mxGeometry x="867.75" y="1317.03" width="82.5" height="30" as="geometry" />
        </mxCell>
        <mxCell id="7-pxe1BSp_YXggkC3oJ0-238" value="Был" style="text;html=1;strokeColor=none;fillColor=none;align=center;verticalAlign=middle;whiteSpace=wrap;rounded=0;" parent="1" vertex="1">
          <mxGeometry x="996.15" y="1321.6499999999999" width="73" height="25.38" as="geometry" />
        </mxCell>
        <mxCell id="7-pxe1BSp_YXggkC3oJ0-239" value="" style="rounded=0;whiteSpace=wrap;html=1;fillColor=#f5f5f5;fontColor=#333333;strokeColor=#666666;" parent="1" vertex="1">
          <mxGeometry x="869.25" y="1348.53" width="346" height="21" as="geometry" />
        </mxCell>
        <mxCell id="7-pxe1BSp_YXggkC3oJ0-240" value="" style="rounded=0;whiteSpace=wrap;html=1;fillColor=#f5f5f5;fontColor=#333333;strokeColor=#666666;" parent="1" vertex="1">
          <mxGeometry x="871.25" y="1377.03" width="343" height="21" as="geometry" />
        </mxCell>
        <mxCell id="7-pxe1BSp_YXggkC3oJ0-241" value="" style="rounded=0;whiteSpace=wrap;html=1;fillColor=#f5f5f5;fontColor=#333333;strokeColor=#666666;" parent="1" vertex="1">
          <mxGeometry x="870.25" y="1404.03" width="343" height="21" as="geometry" />
        </mxCell>
        <mxCell id="7-pxe1BSp_YXggkC3oJ0-242" value="Не был" style="text;html=1;strokeColor=none;fillColor=none;align=center;verticalAlign=middle;whiteSpace=wrap;rounded=0;" parent="1" vertex="1">
          <mxGeometry x="994.47" y="1347.3999999999999" width="73" height="30" as="geometry" />
        </mxCell>
        <mxCell id="7-pxe1BSp_YXggkC3oJ0-243" value="Был" style="text;html=1;strokeColor=none;fillColor=none;align=center;verticalAlign=middle;whiteSpace=wrap;rounded=0;" parent="1" vertex="1">
          <mxGeometry x="994.47" y="1374.78" width="73" height="30" as="geometry" />
        </mxCell>
        <mxCell id="7-pxe1BSp_YXggkC3oJ0-244" value="Не был" style="text;html=1;strokeColor=none;fillColor=none;align=center;verticalAlign=middle;whiteSpace=wrap;rounded=0;" parent="1" vertex="1">
          <mxGeometry x="994.47" y="1400.28" width="73" height="30" as="geometry" />
        </mxCell>
        <mxCell id="7-pxe1BSp_YXggkC3oJ0-245" value="ФИО" style="text;html=1;strokeColor=none;fillColor=none;align=center;verticalAlign=middle;whiteSpace=wrap;rounded=0;" parent="1" vertex="1">
          <mxGeometry x="867.75" y="1345.8999999999999" width="81.5" height="30" as="geometry" />
        </mxCell>
        <mxCell id="7-pxe1BSp_YXggkC3oJ0-246" value="ФИО" style="text;html=1;strokeColor=none;fillColor=none;align=center;verticalAlign=middle;whiteSpace=wrap;rounded=0;" parent="1" vertex="1">
          <mxGeometry x="871.75" y="1372.53" width="77.5" height="30" as="geometry" />
        </mxCell>
        <mxCell id="7-pxe1BSp_YXggkC3oJ0-247" value="ФИО" style="text;html=1;strokeColor=none;fillColor=none;align=center;verticalAlign=middle;whiteSpace=wrap;rounded=0;" parent="1" vertex="1">
          <mxGeometry x="871.75" y="1399.53" width="77.5" height="30" as="geometry" />
        </mxCell>
        <mxCell id="7-pxe1BSp_YXggkC3oJ0-248" value="-" style="text;html=1;strokeColor=none;fillColor=none;align=center;verticalAlign=middle;whiteSpace=wrap;rounded=0;" parent="1" vertex="1">
          <mxGeometry x="1101.43" y="1316.16" width="82" height="30" as="geometry" />
        </mxCell>
        <mxCell id="7-pxe1BSp_YXggkC3oJ0-249" value="-" style="text;html=1;strokeColor=none;fillColor=none;align=center;verticalAlign=middle;whiteSpace=wrap;rounded=0;" parent="1" vertex="1">
          <mxGeometry x="1101.43" y="1343.16" width="82" height="30" as="geometry" />
        </mxCell>
        <mxCell id="7-pxe1BSp_YXggkC3oJ0-250" value="-" style="text;html=1;strokeColor=none;fillColor=none;align=center;verticalAlign=middle;whiteSpace=wrap;rounded=0;" parent="1" vertex="1">
          <mxGeometry x="1101.43" y="1373.16" width="82" height="30" as="geometry" />
        </mxCell>
        <mxCell id="7-pxe1BSp_YXggkC3oJ0-251" value="-" style="text;html=1;strokeColor=none;fillColor=none;align=center;verticalAlign=middle;whiteSpace=wrap;rounded=0;" parent="1" vertex="1">
          <mxGeometry x="1101.43" y="1398.66" width="82" height="30" as="geometry" />
        </mxCell>
        <mxCell id="7-pxe1BSp_YXggkC3oJ0-252" value="" style="rounded=0;whiteSpace=wrap;html=1;" parent="1" vertex="1">
          <mxGeometry x="755" y="1506.4499999999998" width="519" height="290" as="geometry" />
        </mxCell>
        <mxCell id="7-pxe1BSp_YXggkC3oJ0-253" value="" style="rounded=0;whiteSpace=wrap;html=1;fillColor=#f5f5f5;fontColor=#333333;strokeColor=#666666;" parent="1" vertex="1">
          <mxGeometry x="755" y="1507.4499999999998" width="519" height="58" as="geometry" />
        </mxCell>
        <mxCell id="7-pxe1BSp_YXggkC3oJ0-254" value="Логин пользователя" style="rounded=0;whiteSpace=wrap;html=1;" parent="1" vertex="1">
          <mxGeometry x="1134" y="1525.4499999999998" width="120" height="22" as="geometry" />
        </mxCell>
        <mxCell id="7-pxe1BSp_YXggkC3oJ0-255" value="" style="rounded=0;whiteSpace=wrap;html=1;fillColor=#f5f5f5;fontColor=#333333;strokeColor=#666666;" parent="1" vertex="1">
          <mxGeometry x="775" y="1578.4499999999998" width="102" height="200" as="geometry" />
        </mxCell>
        <mxCell id="7-pxe1BSp_YXggkC3oJ0-257" value="Логотип" style="ellipse;whiteSpace=wrap;html=1;" parent="1" vertex="1">
          <mxGeometry x="803" y="1509.9499999999998" width="53" height="50.5" as="geometry" />
        </mxCell>
        <mxCell id="7-pxe1BSp_YXggkC3oJ0-258" value="Название" style="text;html=1;strokeColor=none;fillColor=none;align=center;verticalAlign=middle;whiteSpace=wrap;rounded=0;" parent="1" vertex="1">
          <mxGeometry x="895" y="1520.1999999999998" width="60" height="30" as="geometry" />
        </mxCell>
        <mxCell id="7-pxe1BSp_YXggkC3oJ0-259" value="Проставить оценки экзаменов" style="rounded=0;whiteSpace=wrap;html=1;" parent="1" vertex="1">
          <mxGeometry x="784" y="1585.6799999999998" width="86" height="40" as="geometry" />
        </mxCell>
        <mxCell id="7-pxe1BSp_YXggkC3oJ0-260" value="" style="shape=tee;whiteSpace=wrap;html=1;rotation=90;dx=36;dy=260;" parent="1" vertex="1">
          <mxGeometry x="942.74" y="1564.52" width="44.19" height="363.49" as="geometry" />
        </mxCell>
        <mxCell id="7-pxe1BSp_YXggkC3oJ0-261" value="" style="rounded=0;whiteSpace=wrap;html=1;" parent="1" vertex="1">
          <mxGeometry x="881" y="1581.6799999999998" width="374.5" height="187" as="geometry" />
        </mxCell>
        <mxCell id="7-pxe1BSp_YXggkC3oJ0-262" value="Проставить оценки" style="rounded=0;whiteSpace=wrap;html=1;" parent="1" vertex="1">
          <mxGeometry x="783.85" y="1631.96" width="85.15" height="38.97" as="geometry" />
        </mxCell>
        <mxCell id="7-pxe1BSp_YXggkC3oJ0-264" value="" style="rounded=0;whiteSpace=wrap;html=1;fillColor=#f5f5f5;fontColor=#333333;strokeColor=#666666;" parent="1" vertex="1">
          <mxGeometry x="889" y="1599.45" width="358.5" height="158" as="geometry" />
        </mxCell>
        <mxCell id="7-pxe1BSp_YXggkC3oJ0-265" value="" style="rounded=0;whiteSpace=wrap;html=1;" parent="1" vertex="1">
          <mxGeometry x="892.5" y="1607.45" width="347" height="21" as="geometry" />
        </mxCell>
        <mxCell id="7-pxe1BSp_YXggkC3oJ0-266" value="Группа" style="text;html=1;strokeColor=none;fillColor=none;align=center;verticalAlign=middle;whiteSpace=wrap;rounded=0;" parent="1" vertex="1">
          <mxGeometry x="898.35" y="1602.95" width="89.5" height="30" as="geometry" />
        </mxCell>
        <mxCell id="7-pxe1BSp_YXggkC3oJ0-267" value="Ученик" style="text;html=1;strokeColor=none;fillColor=none;align=center;verticalAlign=middle;whiteSpace=wrap;rounded=0;" parent="1" vertex="1">
          <mxGeometry x="1077" y="1600.8300000000002" width="91" height="30" as="geometry" />
        </mxCell>
        <mxCell id="7-pxe1BSp_YXggkC3oJ0-269" value="" style="rounded=0;whiteSpace=wrap;html=1;fillColor=#f5f5f5;fontColor=#333333;strokeColor=#666666;" parent="1" vertex="1">
          <mxGeometry x="892.5" y="1636.95" width="346" height="21" as="geometry" />
        </mxCell>
        <mxCell id="7-pxe1BSp_YXggkC3oJ0-270" value="Сокращение" style="text;html=1;strokeColor=none;fillColor=none;align=center;verticalAlign=middle;whiteSpace=wrap;rounded=0;" parent="1" vertex="1">
          <mxGeometry x="891" y="1632.45" width="82.5" height="30" as="geometry" />
        </mxCell>
        <mxCell id="7-pxe1BSp_YXggkC3oJ0-271" value="ФИО" style="text;html=1;strokeColor=none;fillColor=none;align=center;verticalAlign=middle;whiteSpace=wrap;rounded=0;" parent="1" vertex="1">
          <mxGeometry x="1086" y="1636.32" width="73" height="25.38" as="geometry" />
        </mxCell>
        <mxCell id="7-pxe1BSp_YXggkC3oJ0-272" value="" style="rounded=0;whiteSpace=wrap;html=1;fillColor=#f5f5f5;fontColor=#333333;strokeColor=#666666;" parent="1" vertex="1">
          <mxGeometry x="892.5" y="1663.95" width="346" height="21" as="geometry" />
        </mxCell>
        <mxCell id="7-pxe1BSp_YXggkC3oJ0-273" value="" style="rounded=0;whiteSpace=wrap;html=1;fillColor=#f5f5f5;fontColor=#333333;strokeColor=#666666;" parent="1" vertex="1">
          <mxGeometry x="894.5" y="1692.45" width="343" height="21" as="geometry" />
        </mxCell>
        <mxCell id="7-pxe1BSp_YXggkC3oJ0-274" value="" style="rounded=0;whiteSpace=wrap;html=1;fillColor=#f5f5f5;fontColor=#333333;strokeColor=#666666;" parent="1" vertex="1">
          <mxGeometry x="893.5" y="1719.45" width="343" height="21" as="geometry" />
        </mxCell>
        <mxCell id="7-pxe1BSp_YXggkC3oJ0-275" value="ФИО" style="text;html=1;strokeColor=none;fillColor=none;align=center;verticalAlign=middle;whiteSpace=wrap;rounded=0;" parent="1" vertex="1">
          <mxGeometry x="1084.32" y="1662.07" width="73" height="30" as="geometry" />
        </mxCell>
        <mxCell id="7-pxe1BSp_YXggkC3oJ0-276" value="ФИО" style="text;html=1;strokeColor=none;fillColor=none;align=center;verticalAlign=middle;whiteSpace=wrap;rounded=0;" parent="1" vertex="1">
          <mxGeometry x="1084.32" y="1689.45" width="73" height="30" as="geometry" />
        </mxCell>
        <mxCell id="7-pxe1BSp_YXggkC3oJ0-277" value="ФИО" style="text;html=1;strokeColor=none;fillColor=none;align=center;verticalAlign=middle;whiteSpace=wrap;rounded=0;" parent="1" vertex="1">
          <mxGeometry x="1084.32" y="1714.95" width="73" height="30" as="geometry" />
        </mxCell>
        <mxCell id="7-pxe1BSp_YXggkC3oJ0-278" value="Сокращение" style="text;html=1;strokeColor=none;fillColor=none;align=center;verticalAlign=middle;whiteSpace=wrap;rounded=0;" parent="1" vertex="1">
          <mxGeometry x="891" y="1661.32" width="81.5" height="30" as="geometry" />
        </mxCell>
        <mxCell id="7-pxe1BSp_YXggkC3oJ0-279" value="Сокращение" style="text;html=1;strokeColor=none;fillColor=none;align=center;verticalAlign=middle;whiteSpace=wrap;rounded=0;" parent="1" vertex="1">
          <mxGeometry x="895" y="1687.95" width="77.5" height="30" as="geometry" />
        </mxCell>
        <mxCell id="7-pxe1BSp_YXggkC3oJ0-280" value="Сокращение" style="text;html=1;strokeColor=none;fillColor=none;align=center;verticalAlign=middle;whiteSpace=wrap;rounded=0;" parent="1" vertex="1">
          <mxGeometry x="895" y="1714.95" width="77.5" height="30" as="geometry" />
        </mxCell>
        <mxCell id="7-pxe1BSp_YXggkC3oJ0-285" value="Проставить посещаемость" style="rounded=0;whiteSpace=wrap;html=1;" parent="1" vertex="1">
          <mxGeometry x="783.17" y="1675.78" width="86.5" height="44.42" as="geometry" />
        </mxCell>
        <mxCell id="7-pxe1BSp_YXggkC3oJ0-286" value="Просмотр групп" style="text;html=1;strokeColor=none;fillColor=none;align=center;verticalAlign=middle;whiteSpace=wrap;rounded=0;" parent="1" vertex="1">
          <mxGeometry x="787" y="1732" width="76" height="30" as="geometry" />
        </mxCell>
        <mxCell id="7-pxe1BSp_YXggkC3oJ0-287" value="" style="rounded=0;whiteSpace=wrap;html=1;" parent="1" vertex="1">
          <mxGeometry x="1340" y="528" width="519" height="290" as="geometry" />
        </mxCell>
        <mxCell id="7-pxe1BSp_YXggkC3oJ0-288" value="" style="rounded=0;whiteSpace=wrap;html=1;fillColor=#f5f5f5;fontColor=#333333;strokeColor=#666666;" parent="1" vertex="1">
          <mxGeometry x="1340" y="529" width="519" height="58" as="geometry" />
        </mxCell>
        <mxCell id="7-pxe1BSp_YXggkC3oJ0-289" value="Логин пользователя" style="rounded=0;whiteSpace=wrap;html=1;" parent="1" vertex="1">
          <mxGeometry x="1719" y="547" width="120" height="22" as="geometry" />
        </mxCell>
        <mxCell id="7-pxe1BSp_YXggkC3oJ0-290" value="" style="rounded=0;whiteSpace=wrap;html=1;fillColor=#f5f5f5;fontColor=#333333;strokeColor=#666666;" parent="1" vertex="1">
          <mxGeometry x="1360" y="600" width="102" height="200" as="geometry" />
        </mxCell>
        <mxCell id="7-pxe1BSp_YXggkC3oJ0-292" value="Настройка рейтинг-контролей" style="rounded=0;whiteSpace=wrap;html=1;" parent="1" vertex="1">
          <mxGeometry x="1368" y="654" width="86" height="43" as="geometry" />
        </mxCell>
        <mxCell id="7-pxe1BSp_YXggkC3oJ0-293" value="Настройка групп" style="rounded=0;whiteSpace=wrap;html=1;" parent="1" vertex="1">
          <mxGeometry x="1368" y="702" width="86" height="39" as="geometry" />
        </mxCell>
        <mxCell id="7-pxe1BSp_YXggkC3oJ0-294" value="Добавить предмет" style="rounded=0;whiteSpace=wrap;html=1;" parent="1" vertex="1">
          <mxGeometry x="1368" y="749" width="86" height="39" as="geometry" />
        </mxCell>
        <mxCell id="7-pxe1BSp_YXggkC3oJ0-296" value="Логотип" style="ellipse;whiteSpace=wrap;html=1;" parent="1" vertex="1">
          <mxGeometry x="1388" y="531.5" width="53" height="50.5" as="geometry" />
        </mxCell>
        <mxCell id="7-pxe1BSp_YXggkC3oJ0-297" value="Название" style="text;html=1;strokeColor=none;fillColor=none;align=center;verticalAlign=middle;whiteSpace=wrap;rounded=0;" parent="1" vertex="1">
          <mxGeometry x="1480" y="541.75" width="60" height="30" as="geometry" />
        </mxCell>
        <mxCell id="7-pxe1BSp_YXggkC3oJ0-299" value="" style="rounded=0;whiteSpace=wrap;html=1;" parent="1" vertex="1">
          <mxGeometry x="1340" y="850.14" width="519" height="290" as="geometry" />
        </mxCell>
        <mxCell id="7-pxe1BSp_YXggkC3oJ0-300" value="" style="rounded=0;whiteSpace=wrap;html=1;fillColor=#f5f5f5;fontColor=#333333;strokeColor=#666666;" parent="1" vertex="1">
          <mxGeometry x="1340" y="851.14" width="519" height="58" as="geometry" />
        </mxCell>
        <mxCell id="7-pxe1BSp_YXggkC3oJ0-301" value="Логин пользователя" style="rounded=0;whiteSpace=wrap;html=1;" parent="1" vertex="1">
          <mxGeometry x="1719" y="869.14" width="120" height="22" as="geometry" />
        </mxCell>
        <mxCell id="7-pxe1BSp_YXggkC3oJ0-302" value="" style="rounded=0;whiteSpace=wrap;html=1;fillColor=#f5f5f5;fontColor=#333333;strokeColor=#666666;" parent="1" vertex="1">
          <mxGeometry x="1360" y="922.14" width="102" height="200" as="geometry" />
        </mxCell>
        <mxCell id="7-pxe1BSp_YXggkC3oJ0-303" value="Настройка экзаменов" style="rounded=0;whiteSpace=wrap;html=1;" parent="1" vertex="1">
          <mxGeometry x="1368" y="929.14" width="86" height="39" as="geometry" />
        </mxCell>
        <mxCell id="7-pxe1BSp_YXggkC3oJ0-305" value="Настройка групп" style="rounded=0;whiteSpace=wrap;html=1;" parent="1" vertex="1">
          <mxGeometry x="1368" y="1024.1399999999999" width="86" height="39" as="geometry" />
        </mxCell>
        <mxCell id="7-pxe1BSp_YXggkC3oJ0-306" value="Добавить предмет" style="rounded=0;whiteSpace=wrap;html=1;" parent="1" vertex="1">
          <mxGeometry x="1368" y="1071.1399999999999" width="86" height="39" as="geometry" />
        </mxCell>
        <mxCell id="7-pxe1BSp_YXggkC3oJ0-307" value="Логотип" style="ellipse;whiteSpace=wrap;html=1;" parent="1" vertex="1">
          <mxGeometry x="1388" y="853.64" width="53" height="50.5" as="geometry" />
        </mxCell>
        <mxCell id="7-pxe1BSp_YXggkC3oJ0-308" value="Название" style="text;html=1;strokeColor=none;fillColor=none;align=center;verticalAlign=middle;whiteSpace=wrap;rounded=0;" parent="1" vertex="1">
          <mxGeometry x="1480" y="863.89" width="60" height="30" as="geometry" />
        </mxCell>
        <mxCell id="7-pxe1BSp_YXggkC3oJ0-309" value="" style="rounded=0;whiteSpace=wrap;html=1;" parent="1" vertex="1">
          <mxGeometry x="1340" y="1205.03" width="519" height="290" as="geometry" />
        </mxCell>
        <mxCell id="7-pxe1BSp_YXggkC3oJ0-310" value="" style="rounded=0;whiteSpace=wrap;html=1;fillColor=#f5f5f5;fontColor=#333333;strokeColor=#666666;" parent="1" vertex="1">
          <mxGeometry x="1340" y="1206.03" width="519" height="58" as="geometry" />
        </mxCell>
        <mxCell id="7-pxe1BSp_YXggkC3oJ0-311" value="Логин пользователя" style="rounded=0;whiteSpace=wrap;html=1;" parent="1" vertex="1">
          <mxGeometry x="1719" y="1224.03" width="120" height="22" as="geometry" />
        </mxCell>
        <mxCell id="7-pxe1BSp_YXggkC3oJ0-312" value="" style="rounded=0;whiteSpace=wrap;html=1;fillColor=#f5f5f5;fontColor=#333333;strokeColor=#666666;" parent="1" vertex="1">
          <mxGeometry x="1360" y="1277.03" width="102" height="200" as="geometry" />
        </mxCell>
        <mxCell id="7-pxe1BSp_YXggkC3oJ0-313" value="Настройка экзаменов" style="rounded=0;whiteSpace=wrap;html=1;" parent="1" vertex="1">
          <mxGeometry x="1368" y="1284.03" width="86" height="39" as="geometry" />
        </mxCell>
        <mxCell id="7-pxe1BSp_YXggkC3oJ0-314" value="Настройка рейтинг-контролей" style="rounded=0;whiteSpace=wrap;html=1;" parent="1" vertex="1">
          <mxGeometry x="1368" y="1331.03" width="86" height="43" as="geometry" />
        </mxCell>
        <mxCell id="7-pxe1BSp_YXggkC3oJ0-316" value="Добавить предмет" style="rounded=0;whiteSpace=wrap;html=1;" parent="1" vertex="1">
          <mxGeometry x="1368" y="1426.03" width="86" height="39" as="geometry" />
        </mxCell>
        <mxCell id="7-pxe1BSp_YXggkC3oJ0-317" value="Логотип" style="ellipse;whiteSpace=wrap;html=1;" parent="1" vertex="1">
          <mxGeometry x="1388" y="1208.53" width="53" height="50.5" as="geometry" />
        </mxCell>
        <mxCell id="7-pxe1BSp_YXggkC3oJ0-318" value="Название" style="text;html=1;strokeColor=none;fillColor=none;align=center;verticalAlign=middle;whiteSpace=wrap;rounded=0;" parent="1" vertex="1">
          <mxGeometry x="1480" y="1218.78" width="60" height="30" as="geometry" />
        </mxCell>
        <mxCell id="7-pxe1BSp_YXggkC3oJ0-319" value="" style="rounded=0;whiteSpace=wrap;html=1;" parent="1" vertex="1">
          <mxGeometry x="1331" y="1522.87" width="519" height="290" as="geometry" />
        </mxCell>
        <mxCell id="7-pxe1BSp_YXggkC3oJ0-320" value="" style="rounded=0;whiteSpace=wrap;html=1;fillColor=#f5f5f5;fontColor=#333333;strokeColor=#666666;" parent="1" vertex="1">
          <mxGeometry x="1331" y="1523.87" width="519" height="58" as="geometry" />
        </mxCell>
        <mxCell id="7-pxe1BSp_YXggkC3oJ0-321" value="Логин пользователя" style="rounded=0;whiteSpace=wrap;html=1;" parent="1" vertex="1">
          <mxGeometry x="1710" y="1541.87" width="120" height="22" as="geometry" />
        </mxCell>
        <mxCell id="7-pxe1BSp_YXggkC3oJ0-322" value="" style="rounded=0;whiteSpace=wrap;html=1;fillColor=#f5f5f5;fontColor=#333333;strokeColor=#666666;" parent="1" vertex="1">
          <mxGeometry x="1351" y="1594.87" width="102" height="200" as="geometry" />
        </mxCell>
        <mxCell id="7-pxe1BSp_YXggkC3oJ0-323" value="Настройка экзаменов" style="rounded=0;whiteSpace=wrap;html=1;" parent="1" vertex="1">
          <mxGeometry x="1359" y="1601.87" width="86" height="39" as="geometry" />
        </mxCell>
        <mxCell id="7-pxe1BSp_YXggkC3oJ0-324" value="Настройка рейтинг-контролей" style="rounded=0;whiteSpace=wrap;html=1;" parent="1" vertex="1">
          <mxGeometry x="1359" y="1648.87" width="86" height="43" as="geometry" />
        </mxCell>
        <mxCell id="7-pxe1BSp_YXggkC3oJ0-325" value="Настройка групп" style="rounded=0;whiteSpace=wrap;html=1;" parent="1" vertex="1">
          <mxGeometry x="1359" y="1696.87" width="86" height="39" as="geometry" />
        </mxCell>
        <mxCell id="7-pxe1BSp_YXggkC3oJ0-327" value="Логотип" style="ellipse;whiteSpace=wrap;html=1;" parent="1" vertex="1">
          <mxGeometry x="1379" y="1526.37" width="53" height="50.5" as="geometry" />
        </mxCell>
        <mxCell id="7-pxe1BSp_YXggkC3oJ0-328" value="Название" style="text;html=1;strokeColor=none;fillColor=none;align=center;verticalAlign=middle;whiteSpace=wrap;rounded=0;" parent="1" vertex="1">
          <mxGeometry x="1471" y="1536.62" width="60" height="30" as="geometry" />
        </mxCell>
        <mxCell id="D7fcRL9TZGj1ogHOBKjB-1" value="" style="shape=corner;whiteSpace=wrap;html=1;rotation=90;dx=42;dy=382;strokeColor=default;fillColor=default;" parent="1" vertex="1">
          <mxGeometry x="1511.62" y="460.62" width="192.32" height="482.53" as="geometry" />
        </mxCell>
        <mxCell id="D7fcRL9TZGj1ogHOBKjB-2" value="Настройка экзаменов" style="text;html=1;strokeColor=none;fillColor=none;align=center;verticalAlign=middle;whiteSpace=wrap;rounded=0;" parent="1" vertex="1">
          <mxGeometry x="1368" y="607" width="77" height="38" as="geometry" />
        </mxCell>
        <mxCell id="D7fcRL9TZGj1ogHOBKjB-3" value="" style="shape=tee;whiteSpace=wrap;html=1;rotation=90;dx=44;dy=264;" parent="1" vertex="1">
          <mxGeometry x="1518.47" y="810.83" width="65.98" height="368.61" as="geometry" />
        </mxCell>
        <mxCell id="D7fcRL9TZGj1ogHOBKjB-4" value="Настройка рейтинг-контролей" style="text;html=1;strokeColor=none;fillColor=none;align=center;verticalAlign=middle;whiteSpace=wrap;rounded=0;" parent="1" vertex="1">
          <mxGeometry x="1368" y="975" width="83" height="38" as="geometry" />
        </mxCell>
        <mxCell id="D7fcRL9TZGj1ogHOBKjB-5" value="" style="rounded=0;whiteSpace=wrap;html=1;" parent="1" vertex="1">
          <mxGeometry x="1471" y="922" width="373" height="202" as="geometry" />
        </mxCell>
        <mxCell id="D7fcRL9TZGj1ogHOBKjB-6" value="" style="shape=tee;whiteSpace=wrap;html=1;rotation=90;dx=39;dy=269;" parent="1" vertex="1">
          <mxGeometry x="1519" y="1216.0000000000002" width="65.98" height="368.61" as="geometry" />
        </mxCell>
        <mxCell id="D7fcRL9TZGj1ogHOBKjB-7" value="Настройка групп" style="text;html=1;strokeColor=none;fillColor=none;align=center;verticalAlign=middle;whiteSpace=wrap;rounded=0;" parent="1" vertex="1">
          <mxGeometry x="1370" y="1380" width="87" height="40" as="geometry" />
        </mxCell>
        <mxCell id="D7fcRL9TZGj1ogHOBKjB-9" value="" style="shape=tee;whiteSpace=wrap;html=1;rotation=90;dx=41;dy=270;" parent="1" vertex="1">
          <mxGeometry x="1512.92" y="1579.7" width="63.38" height="368.61" as="geometry" />
        </mxCell>
        <mxCell id="D7fcRL9TZGj1ogHOBKjB-10" value="Добавить предмет" style="text;html=1;strokeColor=none;fillColor=none;align=center;verticalAlign=middle;whiteSpace=wrap;rounded=0;" parent="1" vertex="1">
          <mxGeometry x="1363" y="1744.95" width="77" height="36.05" as="geometry" />
        </mxCell>
        <mxCell id="D7fcRL9TZGj1ogHOBKjB-17" value="" style="rounded=0;whiteSpace=wrap;html=1;fillColor=#f5f5f5;fontColor=#333333;strokeColor=#666666;" parent="1" vertex="1">
          <mxGeometry x="1477.5" y="613" width="364.5" height="179" as="geometry" />
        </mxCell>
        <mxCell id="D7fcRL9TZGj1ogHOBKjB-11" value="" style="rounded=0;whiteSpace=wrap;html=1;" parent="1" vertex="1">
          <mxGeometry x="1466" y="1277.03" width="373" height="202" as="geometry" />
        </mxCell>
        <mxCell id="D7fcRL9TZGj1ogHOBKjB-12" value="" style="rounded=0;whiteSpace=wrap;html=1;" parent="1" vertex="1">
          <mxGeometry x="1459" y="1595.6200000000001" width="373" height="202" as="geometry" />
        </mxCell>
        <mxCell id="D7fcRL9TZGj1ogHOBKjB-13" value="Изменить дисциплину" style="text;html=1;strokeColor=none;fillColor=none;align=center;verticalAlign=middle;whiteSpace=wrap;rounded=0;" parent="1" vertex="1">
          <mxGeometry x="1485.46" y="639" width="132" height="30" as="geometry" />
        </mxCell>
        <mxCell id="D7fcRL9TZGj1ogHOBKjB-14" value="Изменить тип контроля" style="text;html=1;strokeColor=none;fillColor=none;align=center;verticalAlign=middle;whiteSpace=wrap;rounded=0;" parent="1" vertex="1">
          <mxGeometry x="1643" y="641" width="91" height="30" as="geometry" />
        </mxCell>
        <mxCell id="D7fcRL9TZGj1ogHOBKjB-15" value="Изменить дату" style="text;html=1;strokeColor=none;fillColor=none;align=center;verticalAlign=middle;whiteSpace=wrap;rounded=0;" parent="1" vertex="1">
          <mxGeometry x="1757" y="641" width="82" height="30" as="geometry" />
        </mxCell>
        <mxCell id="D7fcRL9TZGj1ogHOBKjB-16" value="Удалить экзамен" style="text;html=1;strokeColor=none;fillColor=none;align=center;verticalAlign=middle;whiteSpace=wrap;rounded=0;" parent="1" vertex="1">
          <mxGeometry x="1721" y="760.5" width="123" height="30" as="geometry" />
        </mxCell>
        <mxCell id="D7fcRL9TZGj1ogHOBKjB-19" value="Добавить сдаваемую группу" style="text;html=1;strokeColor=none;fillColor=none;align=center;verticalAlign=middle;whiteSpace=wrap;rounded=0;" parent="1" vertex="1">
          <mxGeometry x="1485.46" y="693" width="123" height="30" as="geometry" />
        </mxCell>
        <mxCell id="D7fcRL9TZGj1ogHOBKjB-20" value="Убрать сдаваемую группу" style="text;html=1;strokeColor=none;fillColor=none;align=center;verticalAlign=middle;whiteSpace=wrap;rounded=0;" parent="1" vertex="1">
          <mxGeometry x="1631" y="697" width="123" height="30" as="geometry" />
        </mxCell>
        <mxCell id="D7fcRL9TZGj1ogHOBKjB-21" value="" style="rounded=0;whiteSpace=wrap;html=1;fillColor=#f5f5f5;fontColor=#333333;strokeColor=#666666;" parent="1" vertex="1">
          <mxGeometry x="1481" y="930" width="355" height="185" as="geometry" />
        </mxCell>
        <mxCell id="D7fcRL9TZGj1ogHOBKjB-22" value="Изменить дату" style="text;html=1;strokeColor=none;fillColor=none;align=center;verticalAlign=middle;whiteSpace=wrap;rounded=0;" parent="1" vertex="1">
          <mxGeometry x="1748" y="949.02" width="82" height="30" as="geometry" />
        </mxCell>
        <mxCell id="D7fcRL9TZGj1ogHOBKjB-24" value="Изменить дисциплину" style="text;html=1;strokeColor=none;fillColor=none;align=center;verticalAlign=middle;whiteSpace=wrap;rounded=0;" parent="1" vertex="1">
          <mxGeometry x="1485.99" y="948.52" width="132" height="30" as="geometry" />
        </mxCell>
        <mxCell id="D7fcRL9TZGj1ogHOBKjB-25" value="Добавить сдаваемую группу" style="text;html=1;strokeColor=none;fillColor=none;align=center;verticalAlign=middle;whiteSpace=wrap;rounded=0;" parent="1" vertex="1">
          <mxGeometry x="1490" y="1025.52" width="123" height="30" as="geometry" />
        </mxCell>
        <mxCell id="D7fcRL9TZGj1ogHOBKjB-26" value="Убрать сдаваемую группу" style="text;html=1;strokeColor=none;fillColor=none;align=center;verticalAlign=middle;whiteSpace=wrap;rounded=0;" parent="1" vertex="1">
          <mxGeometry x="1635.54" y="1029.52" width="123" height="30" as="geometry" />
        </mxCell>
        <mxCell id="D7fcRL9TZGj1ogHOBKjB-27" value="Удалить рейтинг-контроль" style="text;html=1;strokeColor=none;fillColor=none;align=center;verticalAlign=middle;whiteSpace=wrap;rounded=0;" parent="1" vertex="1">
          <mxGeometry x="1657" y="1081.27" width="179" height="30" as="geometry" />
        </mxCell>
        <mxCell id="D7fcRL9TZGj1ogHOBKjB-28" value="" style="rounded=0;whiteSpace=wrap;html=1;fillColor=#f5f5f5;fontColor=#333333;strokeColor=#666666;" parent="1" vertex="1">
          <mxGeometry x="1475" y="1286" width="355" height="185" as="geometry" />
        </mxCell>
        <mxCell id="D7fcRL9TZGj1ogHOBKjB-29" value="" style="rounded=0;whiteSpace=wrap;html=1;fillColor=#f5f5f5;fontColor=#333333;strokeColor=#666666;" parent="1" vertex="1">
          <mxGeometry x="1469" y="1604" width="355" height="185" as="geometry" />
        </mxCell>
        <mxCell id="D7fcRL9TZGj1ogHOBKjB-30" value="Изменить название" style="text;html=1;strokeColor=none;fillColor=none;align=center;verticalAlign=middle;whiteSpace=wrap;rounded=0;" parent="1" vertex="1">
          <mxGeometry x="1480" y="1296" width="132" height="30" as="geometry" />
        </mxCell>
        <mxCell id="D7fcRL9TZGj1ogHOBKjB-31" value="Изменить сокращение" style="text;html=1;strokeColor=none;fillColor=none;align=center;verticalAlign=middle;whiteSpace=wrap;rounded=0;" parent="1" vertex="1">
          <mxGeometry x="1631.04" y="1296" width="132" height="30" as="geometry" />
        </mxCell>
        <mxCell id="D7fcRL9TZGj1ogHOBKjB-32" value="Добавить ученика/экзамент" style="text;html=1;strokeColor=none;fillColor=none;align=center;verticalAlign=middle;whiteSpace=wrap;rounded=0;" parent="1" vertex="1">
          <mxGeometry x="1482.46" y="1317.82" width="160.54" height="30" as="geometry" />
        </mxCell>
        <mxCell id="D7fcRL9TZGj1ogHOBKjB-33" value="Удалитьученика/экзамент" style="text;html=1;strokeColor=none;fillColor=none;align=center;verticalAlign=middle;whiteSpace=wrap;rounded=0;" parent="1" vertex="1">
          <mxGeometry x="1668.25" y="1317.82" width="163" height="30.53" as="geometry" />
        </mxCell>
        <mxCell id="D7fcRL9TZGj1ogHOBKjB-34" value="Список ученикоа" style="rounded=0;whiteSpace=wrap;html=1;" parent="1" vertex="1">
          <mxGeometry x="1480" y="1347.82" width="140.5" height="117.21" as="geometry" />
        </mxCell>
        <mxCell id="D7fcRL9TZGj1ogHOBKjB-35" value="Список экзаменов/рейтинг -контролей" style="rounded=0;whiteSpace=wrap;html=1;" parent="1" vertex="1">
          <mxGeometry x="1679.5" y="1347.8200000000002" width="140.5" height="117.21" as="geometry" />
        </mxCell>
        <mxCell id="D7fcRL9TZGj1ogHOBKjB-36" value="Название" style="text;html=1;strokeColor=none;fillColor=none;align=center;verticalAlign=middle;whiteSpace=wrap;rounded=0;" parent="1" vertex="1">
          <mxGeometry x="1475" y="1610.87" width="132" height="30" as="geometry" />
        </mxCell>
        <mxCell id="D7fcRL9TZGj1ogHOBKjB-37" value="Преподаватель" style="text;html=1;strokeColor=none;fillColor=none;align=center;verticalAlign=middle;whiteSpace=wrap;rounded=0;" parent="1" vertex="1">
          <mxGeometry x="1657" y="1613" width="132" height="30" as="geometry" />
        </mxCell>
        <mxCell id="D7fcRL9TZGj1ogHOBKjB-38" value="Добавить группу для рейтинг-контроля" style="text;html=1;strokeColor=none;fillColor=none;align=center;verticalAlign=middle;whiteSpace=wrap;rounded=0;" parent="1" vertex="1">
          <mxGeometry x="1477.5" y="1673.62" width="132" height="30" as="geometry" />
        </mxCell>
        <mxCell id="D7fcRL9TZGj1ogHOBKjB-39" value="Список сдающих групп" style="rounded=0;whiteSpace=wrap;html=1;" parent="1" vertex="1">
          <mxGeometry x="1657" y="1661.24" width="140.5" height="117.21" as="geometry" />
        </mxCell>
        <mxCell id="D7fcRL9TZGj1ogHOBKjB-40" value="Убрать группу для рейтинг-контроля" style="text;html=1;strokeColor=none;fillColor=none;align=center;verticalAlign=middle;whiteSpace=wrap;rounded=0;" parent="1" vertex="1">
          <mxGeometry x="1482.46" y="1731.26" width="132" height="30" as="geometry" />
        </mxCell>
        <mxCell id="CpOcs8P50tlJF6oc762n-3" value="Дисциплина" style="rounded=0;whiteSpace=wrap;html=1;" vertex="1" parent="1">
          <mxGeometry x="881.5" y="609" width="71" height="19" as="geometry" />
        </mxCell>
        <mxCell id="CpOcs8P50tlJF6oc762n-4" value="Группа" style="rounded=0;whiteSpace=wrap;html=1;" vertex="1" parent="1">
          <mxGeometry x="967.85" y="609" width="71" height="19" as="geometry" />
        </mxCell>
        <mxCell id="CpOcs8P50tlJF6oc762n-5" value="Дисциплина" style="rounded=0;whiteSpace=wrap;html=1;" vertex="1" parent="1">
          <mxGeometry x="876.25" y="934.14" width="71" height="14.38" as="geometry" />
        </mxCell>
        <mxCell id="CpOcs8P50tlJF6oc762n-6" value="Группа" style="rounded=0;whiteSpace=wrap;html=1;" vertex="1" parent="1">
          <mxGeometry x="958" y="934.14" width="71" height="14.38" as="geometry" />
        </mxCell>
        <mxCell id="CpOcs8P50tlJF6oc762n-7" value="Дисциплина" style="rounded=0;whiteSpace=wrap;html=1;" vertex="1" parent="1">
          <mxGeometry x="878.35" y="1260.5" width="71" height="14.38" as="geometry" />
        </mxCell>
        <mxCell id="CpOcs8P50tlJF6oc762n-8" value="Группа" style="rounded=0;whiteSpace=wrap;html=1;" vertex="1" parent="1">
          <mxGeometry x="969" y="1262.65" width="71" height="14.38" as="geometry" />
        </mxCell>
      </root>
    </mxGraphModel>
  </diagram>
</mxfile>
